<svg xmlns="http://www.w3.org/2000/svg" width="400" height="300"><rect id="backgroundrect" width="100%" height="100%" x="0" y="0" fill="none" stroke="none"/><g class="currentLayer" style=""><title>Layer 1</title><g id="_329_online_store_flatline" data-name="#329_online_store_flatline" class="selected"><path d="M366.7039970730382,264.9184423647771 H36.23452267896036 a0.7313175038660923,0.6343895386280902 0 0 1 -0.7169779449667574,-0.621950528066755 a0.7169779449667574,0.621950528066755 0 0 1 0.7169779449667574,-0.621950528066755 H366.7039970730382 a0.7169779449667574,0.621950528066755 0 0 1 0.7169779449667574,0.621950528066755 A0.7313175038660923,0.6343895386280902 0 0 1 366.7039970730382,264.9184423647771 z" fill="#d1d3d4" id="svg_1"/><path d="M362.18703601974755,51.004777741497456 V223.73287839619655 a13.952390809053098,12.103157276179049 0 0 1 -13.952390809053098,12.090718265617713 H54.70387454130404 a13.952390809053098,12.103157276179049 0 0 1 -13.952390809053098,-12.090718265617713 V51.004777741497456 a13.93805125015376,12.090718265617713 0 0 1 13.952390809053098,-12.090718265617713 h293.5307706693904 A13.93805125015376,12.090718265617713 0 0 1 362.18703601974755,51.004777741497456 z" fill="#fff" id="svg_2"/><path d="M348.2489847695938,236.3957911476357 H54.68953498240469 a14.612010518422514,12.675351762000462 0 0 1 -14.583331400623845,-12.662912751439126 V51.004777741497456 A14.597670959523178,12.662912751439126 0 0 1 54.68953498240469,38.34186499005833 H348.2489847695938 a14.597670959523178,12.662912751439126 0 0 1 14.583331400623845,12.662912751439126 V223.73287839619655 A14.612010518422514,12.675351762000462 0 0 1 348.2489847695938,236.3957911476357 zM54.68953498240469,39.47381495113982 a13.307110658583015,11.543401800918968 0 0 0 -13.278431540784345,11.530962790357632 V223.73287839619655 a13.292771099683678,11.530962790357632 0 0 0 13.278431540784345,11.518523779796299 H348.2489847695938 a13.292771099683678,11.530962790357632 0 0 0 13.278431540784345,-11.518523779796299 V51.004777741497456 a13.307110658583015,11.543401800918968 0 0 0 -13.278431540784345,-11.530962790357632 z" fill="#231f20" id="svg_3"/><path d="M362.18703601974755,51.004777741497456 v153.37300022126172 H40.751483732250925 V51.004777741497456 a13.93805125015376,12.090718265617713 0 0 1 13.952390809053098,-12.090718265617713 h293.5307706693904 A13.93805125015376,12.090718265617713 0 0 1 362.18703601974755,51.004777741497456 z" fill="#231f20" id="svg_4"/><rect x="53.95821354006112" y="53.25623409779739" width="291.2077647533498" height="139.71496624530732" fill="#fff" id="svg_5"/><path d="M345.1659796062367,193.5433997638363 H53.95821747853859 a0.6596197093694165,0.5721944858214144 0 0 1 -0.6596197093694165,-0.5721944858214144 V53.25623865309911 a0.6596197093694165,0.5721944858214144 0 0 1 0.6596197093694165,-0.5721944858214144 H345.1659796062367 a0.6596197093694165,0.5721944858214144 0 0 1 0.6452801504700816,0.5721944858214144 V192.9712052780149 A0.6596197093694165,0.5721944858214144 0 0 1 345.1659796062367,193.5433997638363 zm-290.56248197722806,-1.1443889716428288 H344.5063598968673 V53.766238086113844 H54.603497629008686 z" fill="#231f20" id="svg_6"/><path d="M201.46925987599923,226.50677775137433 a7.399212392056935,6.4185294496489105 0 1 1 7.399212392056935,-6.406090439087575 A7.399212392056935,6.4185294496489105 0 0 1 201.46925987599923,226.50677775137433 zm0,-11.580718832602974 a5.96525650212342,5.1746283935154 0 1 0 5.96525650212342,5.1746283935154 A5.979596061022756,5.187067404076735 0 0 0 201.46925987599923,214.92605891877133 z" fill="#d1d3d4" id="svg_7"/><path d="M248.25924056452982,257.7660112920094 c-3.799983108323814,-3.9307273373818905 -4.4452632587938945,-21.91753660907244 -4.4452632587938945,-21.91753660907244 H159.12454244626258 s-0.6452801504700816,17.98680927169055 -4.4452632587938945,21.91753660907244 s-18.741803481431035,10.336817776469465 -18.741803481431035,12.613156709193788 s2.2226316293969473,3.109752640333774 13.02031948059631,3.109752640333774 h105.02292937873061 c10.797687851199365,0 13.02031948059631,-0.833413707609452 13.02031948059631,-3.109752640333774 S252.07356323175296,261.6718606082686 248.25924056452982,257.7660112920094 z" fill="#fff" id="svg_8"/><path d="M253.98072456536454,274.0237980956744 H148.95779518663392 c-10.740329615602024,0 -13.679939189965728,-0.7836576653641119 -13.679939189965728,-3.6695081155938536 c0,-1.4429252251148712 3.2550798701490775,-3.346093840999141 9.019582547681807,-6.605114608068937 c4.0007369329145055,-2.251460911601652 8.144869454822363,-4.589994897132651 9.879956081641916,-6.368773407403569 c3.613568842632456,-3.7317031684005286 4.3018676698005445,-21.395098165496364 4.3018676698005445,-21.569244313355057 a0.6596197093694165,0.5721944858214144 0 0 1 0.6596197093694165,-0.5597554752600794 h84.68943485947337 a0.6596197093694165,0.5721944858214144 0 0 1 0.6596197093694165,0.5597554752600794 c0,0.17414614785869137 0.673959268268752,17.82510213439319 4.3018676698005445,21.569244313355057 h0 c1.7350866268195526,1.7787785102709188 5.879219148727411,4.117312495801918 9.879956081641916,6.368773407403569 c5.735823559734058,3.2590207670697953 9.019582547681807,5.1621893829540655 9.019582547681807,6.605114608068937 C267.6606637553303,273.2401404303103 264.7210541809666,274.0237980956744 253.98072456536454,274.0237980956744 zm-94.22524152753124,-37.62800694803866 c-0.14339558899335156,3.1221916508951084 -1.0037691229534602,18.02412630337455 -4.574319288887912,21.70607342952974 c-1.8498030980142337,1.9156076264456048 -6.079972973318104,4.303897654221943 -10.166747259628618,6.605114608068937 c-3.3554567824444237,1.8907296053229348 -8.41732107390973,4.751702034430007 -8.41732107390973,5.647310794846133 c0,1.4926812673602117 0.8747130928594443,2.487802112267019 12.360699771226898,2.487802112267019 h105.02292937873061 c11.471647119468116,0 12.360699771226898,-1.0448768871521477 12.360699771226898,-2.487802112267019 c0,-0.8956087604161272 -5.061864291465306,-3.7317031684005286 -8.41732107390973,-5.647310794846133 c-4.086774286310516,-2.3012169538469927 -8.316944161614387,-4.689506981623333 -10.166747259628618,-6.605114608068937 h0 c-3.5705501659344514,-3.7317031684005286 -4.43092369989456,-18.583881778634634 -4.574319288887912,-21.70607342952974 z" fill="#231f20" id="svg_9"/><path d="M105.13610319026571,74.15377639614208 c-0.11471647119468123,2.1768268482336417 5.735823559734058,44.08385342937157 -43.67829640737485,70.24309263985928 c0,0 28.67911779867029,19.143637253894713 43.67829640737485,48.51214118920687 H53.95821747853859 V70.52158531223222 z" fill="#fff" id="svg_10"/><path d="M105.13610319026571,193.5433997638363 H53.95821747853859 a0.6596197093694165,0.5721944858214144 0 0 1 -0.6596197093694165,-0.5721944858214144 V70.52158531223222 a0.6452801504700816,0.5597554752600794 0 0 1 0.2150933834900272,-0.42292635908539356 a0.673959268268752,0.5846334963827495 0 0 1 0.4875450025773953,-0.14926812673602116 l51.17788571172713,3.6321910839098477 a0.6596197093694165,0.5721944858214144 0 0 1 0.6022614737720762,0.5970725069440844 c0,0.13682911617468613 0,0.4104873485240583 0,0.8458527181707869 c0.7743361805640979,13.496326459048579 -1.9071613336115745,47.168728048582686 -43.233770081495464,69.43455695337249 c4.602998406686582,3.2465817565084616 29.611189127127073,21.68119540840707 43.13339316920011,48.28823899910284 a0.6309405915707464,0.5473164646987443 0 0 1 0,0.5348774541374094 A0.673959268268752,0.5846334963827495 0 0 1 105.13610319026571,193.5433997638363 zm-50.53260556125705,-1.1443889716428288 h49.514496879404255 c-14.82710390191254,-28.497773196018702 -42.77490419671673,-47.3553132070027 -43.018676698005436,-47.54189836542273 a0.6596197093694165,0.5721944858214144 0 0 1 0,-0.9453648026614676 c41.48434389577658,-21.929975619633773 44.16584140995225,-55.440670071870514 43.39150522938815,-68.83748444642842 c0,-0.14926812673602116 0,-0.27365823234937225 0,-0.39804833796272315 L54.603497629008686,71.18085287198298 z" fill="#231f20" id="svg_11"/><path d="M79.58300923165051,185.71926212075655 a0.7169779449667574,0.621950528066755 0 0 1 -0.7169779449667574,-0.5970725069440844 c-0.6452801504700816,-12.103157276179049 -11.328251530474764,-30.177039621798944 -17.63765744618223,-39.87946785964032 c-0.5449032381747358,-0.8209746970481167 -0.5449032381747358,-0.8209746970481167 -0.5018845614767303,-1.0448768871521477 a0.7026383860674226,0.60951151750542 0 0 1 0.8030152983627685,-0.5348774541374094 a0.7169779449667574,0.621950528066755 0 0 1 0.559242797074071,0.3856093274013883 l0.38716809028204896,0.5846334963827495 c6.366764151304805,9.801940322332056 17.207470679202174,28.07484683693331 17.824071711873586,40.4392233349004 a0.7169779449667574,0.621950528066755 0 0 1 -0.6882988271680867,0.646828549189425 z" fill="#d1d3d4" id="svg_12"/><path d="M59.36423118358796,141.1502872794929 a0.7313175038660923,0.6343895386280902 0 0 1 -0.4445263258793896,-0.13682911617468613 a0.7169779449667574,0.621950528066755 0 0 1 -0.12905603009401634,-0.8707307392934565 c0.1003769122953461,-0.09951208449068086 9.191657254473828,-10.237305691978785 14.525973165026503,-32.34142745947125 a0.7169779449667574,0.621950528066755 0 0 1 1.4339558899335145,0.26121922178803714 c-5.420353263948685,22.39021901040317 -14.425596252731156,32.428500533400594 -14.79842478411387,32.83898788192465 A0.7456570627654275,0.646828549189425 0 0 1 59.36423118358796,141.1502872794929 z" fill="#d1d3d4" id="svg_13"/><path d="M53.95821747853859,140.52833675142614 h10.711650497803353 a4.3018676698005445,3.7317031684005286 0 0 1 4.3018676698005445,3.7317031684005286 v0 a4.3018676698005445,3.7317031684005286 0 0 1 -4.3018676698005445,3.7317031684005286 H53.95821747853859 a0,0 0 0 1 0,0 v-7.463406336801057 A0,0 0 0 1 53.95821747853859,140.52833675142614 z" fill="#fff" id="svg_14"/><path d="M64.66986797634195,148.60125460573263 H53.95821747853859 a0.6452801504700816,0.5597554752600794 0 0 1 -0.6596197093694165,-0.5597554752600794 v-7.463406336801057 a0.6596197093694165,0.5721944858214144 0 0 1 0.6596197093694165,-0.5721944858214144 h10.711650497803353 a4.99016649696863,4.328775675344613 0 0 1 0,8.707307392934567 zm-10.037691229534602,-1.1319499610814936 h10.037691229534602 a3.670927078229797,3.1843867037017843 0 0 0 0,-6.368773407403569 h-10.037691229534602 z" fill="#231f20" id="svg_15"/><path d="M78.14905334171699,123.73567249362375 a0.7313175038660923,0.6343895386280902 0 0 1 -0.6022614737720762,-0.9578038132228024 c5.735823559734058,-7.911210717009121 10.525236232111997,-21.780707492897754 10.582594467709338,-21.91753660907244 a0.7169779449667574,0.621950528066755 0 0 1 0.8890526517587795,-0.4104873485240583 a0.7313175038660923,0.6343895386280902 0 0 1 0.4875450025773953,0.7712186548027761 c0,0.13682911617468613 -4.96148737916996,14.15559401879934 -10.740329615602024,22.21607286254448 A0.7169779449667574,0.621950528066755 0 0 1 78.14905334171699,123.73567249362375 z" fill="#d1d3d4" id="svg_16"/><path d="M293.9880938945096,74.15377639614208 c0.1003769122953461,2.1768268482336417 -5.735823559734058,44.08385342937157 43.663956848475515,70.24309263985928 c0,0 -28.67911779867029,19.143637253894713 -43.663956848475515,48.51214118920687 H345.1516400473374 V70.52158531223222 z" fill="#fff" id="svg_17"/><path d="M345.1659796062367,193.5433997638363 H293.9880938945096 a0.6452801504700816,0.5597554752600794 0 0 1 -0.6022614737720762,-0.7960966759254464 c13.522204042073042,-26.60704359069577 38.53039476251354,-45.041657242594376 43.13339316920011,-48.28823899910284 c-41.32660874788388,-22.265828904789817 -44.00810626205956,-55.97554752600793 -43.233770081495464,-69.43455695337249 c0,-0.4353653696467285 0,-0.7090236019961009 0,-0.8458527181707869 a0.6596197093694165,0.5721944858214144 0 0 1 0.6022614737720762,-0.5970725069440844 L345.1086213706394,69.93695181584947 a0.6596197093694165,0.5721944858214144 0 0 1 0.4875450025773953,0.14926812673602116 a0.6452801504700816,0.5597554752600794 0 0 1 0.2150933834900272,0.42292635908539356 v122.44961996578267 A0.6596197093694165,0.5721944858214144 0 0 1 345.1659796062367,193.5433997638363 zm-50.18845614767301,-1.1443889716428288 h49.514496879404255 V71.18085287198298 L294.6763927216777,74.67621483971814 c0,0.12439010561335097 0,0.248780211226702 0,0.39804833796272315 c-0.7743361805640979,13.396814374557897 1.9071613336115745,46.90750882679464 43.39150522938815,68.83748444642842 a0.6596197093694165,0.5721944858214144 0 0 1 0,0.9453648026614676 C337.76676721417977,145.04369758519076 309.81896691937555,163.90123759617478 294.9918630174631,192.39901079219345 z" fill="#231f20" id="svg_18"/><path d="M319.4838296175275,185.71926212075655 h0 a0.7169779449667574,0.621950528066755 0 0 1 -0.6882988271680867,-0.646828549189425 c0.6596197093694165,-12.376815508528418 11.471647119468116,-30.649722023129677 17.83841127077292,-40.451662345461735 l0.37282853138271393,-0.5721944858214144 a0.7456570627654275,0.646828549189425 0 0 1 0.573582355973406,-0.3856093274013883 a0.7313175038660923,0.6343895386280902 0 0 1 0.8030152983627685,0.5348774541374094 c0,0.22390219010403195 0,0.22390219010403195 -0.5018845614767303,1.0448768871521477 c-6.323745474606799,9.68998922728004 -17.006716854611483,27.776310583461264 -17.651997005081565,39.87946785964032 A0.7169779449667574,0.621950528066755 0 0 1 319.4838296175275,185.71926212075655 z" fill="#d1d3d4" id="svg_19"/><path d="M339.745626342288,141.1502872794929 a0.7456570627654275,0.646828549189425 0 0 1 -0.559242797074071,-0.23634120066536699 c-0.37282853138271393,-0.4104873485240583 -9.378071520165184,-10.423890850398811 -14.79842478411387,-32.83898788192465 a0.7169779449667574,0.621950528066755 0 0 1 0.559242797074071,-0.7339016231187713 a0.7026383860674226,0.60951151750542 0 0 1 0.846033975060774,0.4726824013307338 c5.334315910552674,22.09168275693113 14.425596252731156,32.22947636441923 14.525973165026503,32.34142745947125 a0.7169779449667574,0.621950528066755 0 0 1 -0.11471647119468123,0.8707307392934565 A0.8030152983627685,0.6965845914347655 0 0 1 339.745626342288,141.1502872794929 z" fill="#d1d3d4" id="svg_20"/><path d="M345.15161554125524,148.0290586014773 h-10.711650497803353 a-4.3018676698005445,-3.7317031684005286 0 0 1 -4.3018676698005445,-3.7317031684005286 v0 a-4.3018676698005445,-3.7317031684005286 0 0 1 4.3018676698005445,-3.7317031684005286 h10.711650497803353 a0,0 0 0 1 0,0 v7.463406336801057 A0,0 0 0 1 345.15161554125524,148.0290586014773 z" fill="#fff" id="svg_21"/><path d="M345.1659796062367,148.60125460573263 h-10.72599005670269 a4.99016649696863,4.328775675344613 0 0 1 0,-8.707307392934567 h10.72599005670269 a0.6596197093694165,0.5721944858214144 0 0 1 0.6452801504700816,0.5721944858214144 v7.463406336801057 A0.6452801504700816,0.5597554752600794 0 0 1 345.1659796062367,148.60125460573263 zm-10.72599005670269,-7.463406336801057 a3.670927078229797,3.1843867037017843 0 0 0 0,6.368773407403569 h10.037691229534602 v-6.368773407403569 z" fill="#231f20" id="svg_22"/><path d="M320.96080418415903,123.73567249362375 a0.673959268268752,0.5846334963827495 0 0 1 -0.6022614737720762,-0.29853625347204243 c-5.735823559734058,-8.060478843745143 -10.697310938904018,-22.079243746369794 -10.740329615602024,-22.21607286254448 a0.7169779449667574,0.621950528066755 0 0 1 1.3622580954368388,-0.3607313062787178 c0,0.13682911617468613 4.90412914357262,14.006325892063318 10.582594467709338,21.91753660907244 a0.7313175038660923,0.6343895386280902 0 0 1 -0.6022614737720762,0.9578038132228024 z" fill="#d1d3d4" id="svg_23"/><path d="M64.72722621193928,12.630430159778687 H338.2112935400592 a13.20673374628767,11.456328726989625 0 0 1 13.20673374628767,11.456328726989625 V28.888216963443654 a0,0 0 0 1 0,0 H51.506152906752284 a0,0 0 0 1 0,0 V24.08675888676831 A13.20673374628767,11.456328726989625 0 0 1 64.72722621193928,12.630430159778687 z" fill="#fb2a47" id="svg_24"/><path d="M351.4323668452462,29.41065540701973 H51.506152906752284 A0.6596197093694165,0.5721944858214144 0 0 1 50.90389143298022,28.888216963443654 V24.08675888676831 a13.880693014556421,12.040962223372372 0 0 1 13.866353455657087,-12.028523212811038 H338.2112935400592 A13.880693014556421,12.040962223372372 0 0 1 352.0346283190183,24.08675888676831 V28.888216963443654 A0.6596197093694165,0.5721944858214144 0 0 1 351.4323668452462,29.41065540701973 zM52.1657726161217,28.2662664353769 H350.7727471358768 V24.08675888676831 a12.575793154716921,10.909012262290878 0 0 0 -12.561453595817587,-10.896573251729544 H64.72722621193928 a12.575793154716921,10.909012262290878 0 0 0 -12.561453595817587,10.896573251729544 z" fill="#231f20" id="svg_25"/><polygon points="49.94314407897559,28.838460014155885 12.617276909933707,64.86183680451757 39.58998063315971,64.86183680451757 71.58153572069364,28.838460014155885 49.94314407897559,28.838460014155885 " fill="#fff" id="svg_26"/><path d="M39.589979461404795,65.42159098208484 H12.61726917175538 a0.6596197093694165,0.5721944858214144 0 0 1 -0.6022614737720762,-0.33585328515604773 a0.673959268268752,0.5846334963827495 0 0 1 0.11471647119468123,-0.60951151750542 L49.4699355430467,28.465290604358255 a0.6309405915707464,0.5473164646987443 0 0 1 0.4875450025773953,-0.19902416898136163 h21.638394379096738 a0.6452801504700816,0.5597554752600794 0 0 1 0.5879219148727413,0.3234142745947126 a0.6309405915707464,0.5473164646987443 0 0 1 0,0.5970725069440844 l-31.977216345517373,36.07313062787178 A0.673959268268752,0.5846334963827495 0 0 1 39.589979461404795,65.42159098208484 zm-25.51007528191722,-1.1319499610814936 H39.274509165619406 l30.973447222563916,-34.82922957173827 h-20.075382459069203 z" fill="#231f20" id="svg_27"/><polygon points="71.58153572069364,28.838460014155885 39.58998063315971,64.86183680451757 66.57703043093329,64.86183680451757 93.2342686581203,28.838460014155885 71.58153572069364,28.838460014155885 " fill="#fb2a47" id="svg_28"/><path d="M66.57702930995355,65.42159098208484 H39.589979461404795 a0.673959268268752,0.5846334963827495 0 0 1 -0.5879219148727413,-0.3109752640333775 a0.7026383860674226,0.60951151750542 0 0 1 0,-0.5970725069440844 l31.99155590441671,-36.07313062787178 a0.673959268268752,0.5846334963827495 0 0 1 0.5162241203760655,-0.22390219010403195 h21.652733937996068 a0.6596197093694165,0.5721944858214144 0 0 1 0.5449032381747358,0.8831697498547916 L67.12193254812827,65.16037176029678 A0.6452801504700816,0.5597554752600794 0 0 1 66.57702930995355,65.42159098208484 zM40.866200203445615,64.28964102100333 h25.294981898427196 l25.81120601880326,-34.82922957173827 h-20.075382459069203 z" fill="#231f20" id="svg_29"/><polygon points="93.2342686581203,28.838460014155885 66.57703043093329,64.86183680451757 93.54973893299825,64.86183680451757 114.8869872590301,28.838460014155885 93.2342686581203,28.838460014155885 " fill="#fff" id="svg_30"/><path d="M93.54973959960292,65.42159098208484 H66.57702930995355 a0.6596197093694165,0.5721944858214144 0 0 1 -0.573582355973406,-0.2860972429107072 a0.6596197093694165,0.5721944858214144 0 0 1 0,-0.5846334963827495 l26.65723999386404,-36.07313062787178 a0.673959268268752,0.5846334963827495 0 0 1 0.559242797074071,-0.26121922178803714 h21.652733937996068 a0.6596197093694165,0.5721944858214144 0 0 1 0.5449032381747358,0.27365823234937225 a0.6452801504700816,0.5597554752600794 0 0 1 0,0.5597554752600794 l-21.32292408331136,36.07313062787178 A0.6596197093694165,0.5721944858214144 0 0 1 93.54973959960292,65.42159098208484 zm-25.81120601880326,-1.1319499610814936 h25.381019251823208 l20.66330437394194,-34.82922957173827 h-20.218778048062553 z" fill="#231f20" id="svg_31"/><polygon points="114.8869872590301,28.838460014155885 93.54973893299825,64.86183680451757 120.53677917309392,64.86183680451757 136.52539801610396,28.838460014155885 114.8869872590301,28.838460014155885 " fill="#fb2a47" id="svg_32"/><path d="M120.53678944815168,65.42159098208484 H93.54973959960292 a0.673959268268752,0.5846334963827495 0 0 1 -0.559242797074071,-0.26121922178803714 a0.6452801504700816,0.5597554752600794 0 0 1 0,-0.5597554752600794 l21.32292408331136,-36.07313062787178 a0.6596197093694165,0.5721944858214144 0 0 1 0.5879219148727413,-0.3109752640333775 h21.638394379096738 a0.6596197093694165,0.5721944858214144 0 0 1 0.6166010326714116,0.7712186548027761 L121.16773003972243,65.06085967580611 A0.6166010326714116,0.5348774541374094 0 0 1 120.53678944815168,65.42159098208484 zm-25.911582931098607,-1.1319499610814936 h25.452717046319883 l15.486723611281958,-34.82922957173827 H115.27417133209566 z" fill="#231f20" id="svg_33"/><polygon points="136.52539801610396,28.838460014155885 120.53677917309392,64.86183680451757 147.50948289631992,64.86183680451757 158.17812617469167,28.838460014155885 136.52539801610396,28.838460014155885 " fill="#fff" id="svg_34"/><path d="M147.5094997378011,65.42159098208484 H120.53678944815168 a0.6452801504700816,0.5597554752600794 0 0 1 -0.6166010326714116,-0.7712186548027761 L135.90879658823894,28.639436752216945 a0.6596197093694165,0.5721944858214144 0 0 1 0.6166010326714116,-0.3731703168400532 h21.652733937996068 a0.673959268268752,0.5846334963827495 0 0 1 0.5162241203760655,0.22390219010403195 a0.6596197093694165,0.5721944858214144 0 0 1 0.11471647119468123,0.4851214118920689 l-10.668631821105349,36.07313062787178 A0.6452801504700816,0.5597554752600794 0 0 1 147.5094997378011,65.42159098208484 zm-26.026299402293287,-1.1319499610814936 H146.97893605852568 l10.324482407521305,-34.82922957173827 H136.94124482899107 z" fill="#231f20" id="svg_35"/><polygon points="158.17812617469167,28.838460014155885 147.50948289631992,64.86183680451757 174.49654225177142,64.86183680451757 179.81651781640971,28.838460014155885 158.17812617469167,28.838460014155885 " fill="#fb2a47" id="svg_36"/><path d="M174.49654958634983,65.42159098208484 H147.5094997378011 a0.6596197093694165,0.5721944858214144 0 0 1 -0.5162241203760655,-0.2114631795426967 a0.6452801504700816,0.5597554752600794 0 0 1 -0.11471647119468123,-0.4975604224534041 l10.668631821105349,-36.0109355750651 a0.6596197093694165,0.5721944858214144 0 0 1 0.6309405915707464,-0.4353653696467285 H179.81652593800317 a0.6882988271680867,0.5970725069440844 0 0 1 0.5018845614767303,0.19902416898136163 a0.7456570627654275,0.646828549189425 0 0 1 0.15773514789268667,0.4478043802080639 l-5.334315910552674,36.07313062787178 A0.6452801504700816,0.5597554752600794 0 0 1 174.49654958634983,65.42159098208484 zM148.4128919484592,64.28964102100333 h25.55309395861523 l5.162241203760653,-34.82922957173827 H158.6800161203832 z" fill="#231f20" id="svg_37"/><polygon points="179.81651781640971,28.838460014155885 174.49654225177142,64.86183680451757 201.46924597499742,64.86183680451757 201.46924597499742,28.838460014155885 179.81651781640971,28.838460014155885 " fill="#fff" id="svg_38"/><path d="M201.46925987599923,65.42159098208484 H174.49654958634983 a0.6452801504700816,0.5597554752600794 0 0 1 -0.5018845614767303,-0.18658515842002646 a0.7456570627654275,0.646828549189425 0 0 1 -0.15773514789268667,-0.4478043802080639 l5.334315910552674,-36.07313062787178 a0.6452801504700816,0.5597554752600794 0 0 1 0.6452801504700816,-0.4975604224534041 H201.46925987599923 a0.673959268268752,0.5846334963827495 0 0 1 0.6596197093694165,0.5721944858214144 v36.07313062787178 A0.6596197093694165,0.5721944858214144 0 0 1 201.46925987599923,65.42159098208484 zm-26.227053226883978,-1.1319499610814936 h25.567433517514562 v-34.82922957173827 H180.4044478528759 z" fill="#231f20" id="svg_39"/><polygon points="201.46924597499742,28.838460014155885 201.46924597499742,64.86183680451757 228.44196881357925,64.86183680451757 223.12199324894095,28.838460014155885 201.46924597499742,28.838460014155885 " fill="#fb2a47" id="svg_40"/><path d="M228.44197016564866,65.42159098208484 H201.46925987599923 a0.6596197093694165,0.5721944858214144 0 0 1 -0.6596197093694165,-0.5597554752600794 V28.888216963443654 a0.673959268268752,0.5846334963827495 0 0 1 0.6596197093694165,-0.5721944858214144 h21.652733937996068 a0.6452801504700816,0.5597554752600794 0 0 1 0.6452801504700816,0.4975604224534041 l5.334315910552674,36.07313062787178 a0.7456570627654275,0.646828549189425 0 0 1 -0.15773514789268667,0.4478043802080639 A0.6452801504700816,0.5597554752600794 0 0 1 228.44197016564866,65.42159098208484 zm-26.313090580279994,-1.1319499610814936 h25.567433517514562 l-5.162241203760653,-34.82922957173827 H202.12887958536865 z" fill="#231f20" id="svg_41"/><polygon points="223.12199324894095,28.838460014155885 228.44196881357925,64.86183680451757 255.42900905367492,64.86183680451757 244.760384890659,28.838460014155885 223.12199324894095,28.838460014155885 " fill="#fff" id="svg_42"/><path d="M255.42902001419736,65.42159098208484 H228.44197016564866 a0.6452801504700816,0.5597554752600794 0 0 1 -0.6452801504700816,-0.4851214118920689 l-5.334315910552674,-36.07313062787178 a0.7456570627654275,0.646828549189425 0 0 1 0.15773514789268667,-0.4478043802080639 a0.6882988271680867,0.5970725069440844 0 0 1 0.5018845614767303,-0.19902416898136163 h21.638394379096738 a0.6596197093694165,0.5721944858214144 0 0 1 0.6309405915707464,0.4353653696467285 l10.668631821105349,36.0109355750651 a0.6452801504700816,0.5597554752600794 0 0 1 -0.11471647119468123,0.4975604224534041 A0.6596197093694165,0.5721944858214144 0 0 1 255.42902001419736,65.42159098208484 zm-26.399127933676,-1.1319499610814936 H254.5256278035393 l-10.324482407521305,-34.82922957173827 H223.86765087676073 z" fill="#231f20" id="svg_43"/><polygon points="244.760384890659,28.838460014155885 255.42900905367492,64.86183680451757 282.40173189225675,64.86183680451757 266.4131130492467,28.838460014155885 244.760384890659,28.838460014155885 " fill="#fb2a47" id="svg_44"/><path d="M282.4017303038468,65.42159098208484 H255.42902001419736 a0.6452801504700816,0.5597554752600794 0 0 1 -0.6309405915707464,-0.42292635908539356 l-10.668631821105349,-36.07313062787178 a0.6596197093694165,0.5721944858214144 0 0 1 0.11471647119468123,-0.4851214118920689 a0.673959268268752,0.5846334963827495 0 0 1 0.5162241203760655,-0.22390219010403195 h21.652733937996068 a0.6596197093694165,0.5721944858214144 0 0 1 0.6166010326714116,0.3731703168400532 l15.988608172758687,36.07313062787178 a0.6452801504700816,0.5597554752600794 0 0 1 -0.6166010326714116,0.7712186548027761 zM255.95958369347278,64.28964102100333 h25.524414840816558 l-15.486723611281958,-34.82922957173827 h-20.362173637055907 z" fill="#231f20" id="svg_45"/><polygon points="266.4131130492467,28.838460014155885 282.40173189225675,64.86183680451757 309.38879124770824,64.86183680451757 288.05150469096475,28.838460014155885 266.4131130492467,28.838460014155885 " fill="#fff" id="svg_46"/><path d="M309.3887801523955,65.42159098208484 H282.4017303038468 a0.6166010326714116,0.5348774541374094 0 0 1 -0.6022614737720762,-0.3607313062787178 l-16.002947731658022,-36.07313062787178 a0.6596197093694165,0.5721944858214144 0 0 1 0.6166010326714116,-0.7712186548027761 h21.638394379096738 a0.6596197093694165,0.5721944858214144 0 0 1 0.5879219148727413,0.3109752640333775 l21.32292408331136,36.07313062787178 a0.6452801504700816,0.5597554752600794 0 0 1 0,0.5597554752600794 A0.673959268268752,0.5846334963827495 0 0 1 309.3887801523955,65.42159098208484 zm-26.52818396377002,-1.1319499610814936 h25.452717046319883 l-20.64896481504261,-34.82922957173827 H267.4312308129409 z" fill="#231f20" id="svg_47"/><polygon points="288.05150469096475,28.838460014155885 309.38879124770824,64.86183680451757 336.3615140862901,64.86183680451757 309.7042710802641,28.838460014155885 288.05150469096475,28.838460014155885 " fill="#fb2a47" id="svg_48"/><path d="M336.36149044204495,65.42159098208484 H309.3887801523955 a0.6596197093694165,0.5721944858214144 0 0 1 -0.5879219148727413,-0.29853625347204243 L287.5066132720101,29.09968014298635 a0.6452801504700816,0.5597554752600794 0 0 1 0,-0.5597554752600794 a0.6596197093694165,0.5721944858214144 0 0 1 0.5449032381747358,-0.27365823234937225 h21.652733937996068 a0.673959268268752,0.5846334963827495 0 0 1 0.559242797074071,0.26121922178803714 l26.65723999386404,36.07313062787178 a0.6596197093694165,0.5721944858214144 0 0 1 0,0.5846334963827495 A0.6596197093694165,0.5721944858214144 0 0 1 336.36149044204495,65.42159098208484 zm-26.571202640468027,-1.1319499610814936 h25.381019251823208 l-25.81120601880326,-34.82922957173827 h-20.218778048062553 z" fill="#231f20" id="svg_49"/><polygon points="309.7042710802641,28.838460014155885 336.3615140862901,64.86183680451757 363.34857344174156,64.86183680451757 331.35696100814016,28.838460014155885 309.7042710802641,28.838460014155885 " fill="#fff" id="svg_50"/><path d="M363.3485402905937,65.42159098208484 H336.36149044204495 a0.6452801504700816,0.5597554752600794 0 0 1 -0.5449032381747358,-0.26121922178803714 L309.1593472100062,29.149436185231686 a0.6596197093694165,0.5721944858214144 0 0 1 0.5449032381747358,-0.8831697498547916 h21.652733937996068 a0.673959268268752,0.5846334963827495 0 0 1 0.5162241203760655,0.22390219010403195 l31.99155590441671,36.07313062787178 a0.7026383860674226,0.60951151750542 0 0 1 0.07169779449667579,0.5970725069440844 A0.673959268268752,0.5846334963827495 0 0 1 363.3485402905937,65.42159098208484 zm-26.628560876065364,-1.1319499610814936 H362.07231954855285 l-30.98778678146325,-34.82922957173827 h-20.075382459069203 z" fill="#231f20" id="svg_51"/><polygon points="331.35696100814016,28.838460014155885 363.34857344174156,64.86183680451757 390.32125804961174,64.86183680451757 352.99539088056986,28.838460014155885 331.35696100814016,28.838460014155885 " fill="#fb2a47" id="svg_52"/><path d="M390.32125058024315,65.42159098208484 H363.3485402905937 a0.673959268268752,0.5846334963827495 0 0 1 -0.5305636792754007,-0.2114631795426967 l-31.99155590441671,-36.07313062787178 a0.6596197093694165,0.5721944858214144 0 0 1 0,-0.5970725069440844 a0.6309405915707464,0.5473164646987443 0 0 1 0.5879219148727413,-0.3234142745947126 h21.638394379096738 a0.6309405915707464,0.5473164646987443 0 0 1 0.4875450025773953,0.19902416898136163 l37.28285313827138,36.07313062787178 a0.673959268268752,0.5846334963827495 0 0 1 0.11471647119468123,0.60951151750542 A0.6596197093694165,0.5721944858214144 0 0 1 390.32125058024315,65.42159098208484 zm-26.65723999386404,-1.1319499610814936 h25.19460498613185 l-36.1500279852239,-34.82922957173827 h-20.075382459069203 z" fill="#231f20" id="svg_53"/><path d="M12.61726917175538,64.86183550682475 H39.589979461404795 a0,0 0 0 1 0,0 V84.62742328878622 A13.178054628488999,11.431450705866952 0 0 1 26.41192483291578,96.05887399465317 h-0.6166010326714116 a13.178054628488999,11.431450705866952 0 0 1 -13.178054628488999,-11.431450705866952 V64.86183550682475 a0,0 0 0 1 0,0 z" fill="#fff" id="svg_54"/><path d="M26.41192483291578,96.63106848047458 h-0.6166010326714116 a13.85201389675775,12.016084202249703 0 0 1 -13.837674337858415,-12.003645191688367 V64.86183550682475 a0.673959268268752,0.5846334963827495 0 0 1 0.6596197093694165,-0.5721944858214144 H39.589979461404795 a0.6596197093694165,0.5721944858214144 0 0 1 0.6596197093694165,0.5721944858214144 V84.62742328878622 A13.85201389675775,12.016084202249703 0 0 1 26.41192483291578,96.63106848047458 zM13.276888881124794,65.42159098208484 V84.62742328878622 a12.532774478018917,10.871695230606873 0 0 0 12.518434919119583,10.85925622004554 h0.6166010326714116 a12.547114036918252,10.884134241168208 0 0 0 12.532774478018917,-10.85925622004554 V65.42159098208484 z" fill="#231f20" id="svg_55"/><path d="M39.589979461404795,64.86183550682475 h26.97271028964941 a0,0 0 0 1 0,0 V84.62742328878622 A13.178054628488999,11.431450705866952 0 0 1 53.38463512256519,96.05887399465317 h-0.6166010326714116 a13.178054628488999,11.431450705866952 0 0 1 -13.178054628488999,-11.431450705866952 V64.86183550682475 a0,0 0 0 1 0,0 z" fill="#fb2a47" id="svg_56"/><path d="M53.38463512256519,96.63106848047458 h-0.6022614737720762 a13.85201389675775,12.016084202249703 0 0 1 -13.837674337858415,-12.003645191688367 V64.86183550682475 a0.6596197093694165,0.5721944858214144 0 0 1 0.6452801504700816,-0.5721944858214144 h26.987049848548743 a0.6596197093694165,0.5721944858214144 0 0 1 0.6452801504700816,0.5721944858214144 V84.62742328878622 A13.85201389675775,12.016084202249703 0 0 1 53.38463512256519,96.63106848047458 zM40.24959917077419,65.42159098208484 V84.62742328878622 a12.547114036918252,10.884134241168208 0 0 0 12.532774478018917,10.85925622004554 h0.6022614737720762 a12.547114036918252,10.884134241168208 0 0 0 12.532774478018917,-10.85925622004554 V65.42159098208484 z" fill="#231f20" id="svg_57"/><path d="M66.57702930995355,64.86183550682475 h26.97271028964941 a0,0 0 0 1 0,0 V84.62742328878622 a13.178054628488999,11.431450705866952 0 0 1 -13.178054628488999,11.431450705866952 h-0.6166010326714116 a13.178054628488999,11.431450705866952 0 0 1 -13.178054628488999,-11.431450705866952 V64.86183550682475 a0,0 0 0 1 0,0 z" fill="#fff" id="svg_58"/><path d="M80.37168497111392,96.63106848047458 h-0.6166010326714116 a13.85201389675775,12.016084202249703 0 0 1 -13.837674337858415,-12.003645191688367 V64.86183550682475 a0.673959268268752,0.5846334963827495 0 0 1 0.6596197093694165,-0.5721944858214144 h26.97271028964941 a0.673959268268752,0.5846334963827495 0 0 1 0.6596197093694165,0.5721944858214144 V84.62742328878622 A13.85201389675775,12.016084202249703 0 0 1 80.37168497111392,96.63106848047458 zm-13.14937551069033,-31.209477498389756 V84.62742328878622 a12.547114036918252,10.884134241168208 0 0 0 12.532774478018917,10.85925622004554 h0.6166010326714116 a12.547114036918252,10.884134241168208 0 0 0 12.532774478018917,-10.85925622004554 V65.42159098208484 z" fill="#231f20" id="svg_59"/><path d="M93.54973959960292,64.86183550682475 h26.97271028964941 a0,0 0 0 1 0,0 V84.62742328878622 a13.178054628488999,11.431450705866952 0 0 1 -13.178054628488999,11.431450705866952 h-0.6166010326714116 a13.178054628488999,11.431450705866952 0 0 1 -13.178054628488999,-11.431450705866952 V64.86183550682475 a0,0 0 0 1 0,0 z" fill="#fb2a47" id="svg_60"/><path d="M107.34439526076338,96.63106848047458 h-0.6022614737720762 a13.85201389675775,12.016084202249703 0 0 1 -13.837674337858415,-12.003645191688367 V64.86183550682475 a0.6596197093694165,0.5721944858214144 0 0 1 0.6452801504700816,-0.5721944858214144 h26.987049848548743 a0.6596197093694165,0.5721944858214144 0 0 1 0.6452801504700816,0.5721944858214144 V84.62742328878622 A13.85201389675775,12.016084202249703 0 0 1 107.34439526076338,96.63106848047458 zM94.20935930897237,65.42159098208484 V84.62742328878622 a12.547114036918252,10.884134241168208 0 0 0 12.532774478018917,10.85925622004554 h0.6022614737720762 a12.547114036918252,10.884134241168208 0 0 0 12.532774478018917,-10.85925622004554 V65.42159098208484 z" fill="#231f20" id="svg_61"/><path d="M120.53678944815168,64.86183550682475 h26.97271028964941 a0,0 0 0 1 0,0 V84.62742328878622 a13.178054628488999,11.431450705866952 0 0 1 -13.178054628488999,11.431450705866952 h-0.6166010326714116 a13.178054628488999,11.431450705866952 0 0 1 -13.178054628488999,-11.431450705866952 V64.86183550682475 A0,0 0 0 1 120.53678944815168,64.86183550682475 z" fill="#fff" id="svg_62"/><path d="M134.3314451093121,96.63106848047458 h-0.6166010326714116 a13.85201389675775,12.016084202249703 0 0 1 -13.837674337858415,-12.003645191688367 V64.86183550682475 a0.6596197093694165,0.5721944858214144 0 0 1 0.6596197093694165,-0.5721944858214144 h26.97271028964941 a0.673959268268752,0.5846334963827495 0 0 1 0.6596197093694165,0.5721944858214144 V84.62742328878622 A13.85201389675775,12.016084202249703 0 0 1 134.3314451093121,96.63106848047458 zM121.16773003972243,65.42159098208484 V84.62742328878622 a12.547114036918252,10.884134241168208 0 0 0 12.532774478018917,10.85925622004554 h0.6166010326714116 a12.532774478018917,10.871695230606873 0 0 0 12.518434919119583,-10.85925622004554 V65.42159098208484 z" fill="#231f20" id="svg_63"/><path d="M147.5094997378011,64.86183550682475 h26.97271028964941 a0,0 0 0 1 0,0 V84.62742328878622 A13.178054628488999,11.431450705866952 0 0 1 161.31849495786082,96.05887399465317 h-0.6166010326714116 a13.178054628488999,11.431450705866952 0 0 1 -13.178054628488999,-11.431450705866952 V64.86183550682475 A0,0 0 0 1 147.5094997378011,64.86183550682475 z" fill="#fb2a47" id="svg_64"/><path d="M161.31849495786082,96.63106848047458 h-0.6022614737720762 a13.85201389675775,12.016084202249703 0 0 1 -13.85201389675775,-12.003645191688367 V64.86183550682475 a0.673959268268752,0.5846334963827495 0 0 1 0.6596197093694165,-0.5721944858214144 h26.987049848548743 a0.6596197093694165,0.5721944858214144 0 0 1 0.6452801504700816,0.5721944858214144 V84.62742328878622 A13.85201389675775,12.016084202249703 0 0 1 161.31849495786082,96.63106848047458 zm-13.135035951790993,-31.209477498389756 V84.62742328878622 a12.547114036918252,10.884134241168208 0 0 0 12.532774478018917,10.85925622004554 H161.31849495786082 a12.547114036918252,10.884134241168208 0 0 0 12.532774478018917,-10.85925622004554 V65.42159098208484 z" fill="#231f20" id="svg_65"/><path d="M174.49654958634983,64.86183550682475 H201.46925987599923 a0,0 0 0 1 0,0 V84.62742328878622 a13.178054628488999,11.431450705866952 0 0 1 -13.178054628488999,11.431450705866952 h-0.6166010326714116 a13.178054628488999,11.431450705866952 0 0 1 -13.178054628488999,-11.431450705866952 V64.86183550682475 A0,0 0 0 1 174.49654958634983,64.86183550682475 z" fill="#fff" id="svg_66"/><path d="M188.29120524751025,96.63106848047458 h-0.6166010326714116 a13.85201389675775,12.016084202249703 0 0 1 -13.837674337858415,-12.003645191688367 V64.86183550682475 a0.6596197093694165,0.5721944858214144 0 0 1 0.6596197093694165,-0.5721944858214144 H201.46925987599923 a0.673959268268752,0.5846334963827495 0 0 1 0.6596197093694165,0.5721944858214144 V84.62742328878622 A13.85201389675775,12.016084202249703 0 0 1 188.29120524751025,96.63106848047458 zm-13.14937551069033,-31.209477498389756 V84.62742328878622 a12.547114036918252,10.884134241168208 0 0 0 12.532774478018917,10.85925622004554 h0.6166010326714116 a12.532774478018917,10.871695230606873 0 0 0 12.518434919119583,-10.85925622004554 V65.42159098208484 z" fill="#231f20" id="svg_67"/><path d="M201.46925987599923,64.86183550682475 h26.97271028964941 a0,0 0 0 1 0,0 V84.62742328878622 a13.178054628488999,11.431450705866952 0 0 1 -13.178054628488999,11.431450705866952 h-0.6166010326714116 A13.178054628488999,11.431450705866952 0 0 1 201.46925987599923,84.62742328878622 V64.86183550682475 a0,0 0 0 1 0,0 z" fill="#fb2a47" id="svg_68"/><path d="M215.26391553715965,96.63106848047458 h-0.6166010326714116 a13.85201389675775,12.016084202249703 0 0 1 -13.837674337858415,-12.003645191688367 V64.86183550682475 a0.673959268268752,0.5846334963827495 0 0 1 0.6596197093694165,-0.5721944858214144 h26.97271028964941 a0.6596197093694165,0.5721944858214144 0 0 1 0.6596197093694165,0.5721944858214144 V84.62742328878622 A13.85201389675775,12.016084202249703 0 0 1 215.26391553715965,96.63106848047458 zm-13.135035951790993,-31.209477498389756 V84.62742328878622 a12.532774478018917,10.871695230606873 0 0 0 12.518434919119583,10.85925622004554 h0.6166010326714116 a12.547114036918252,10.884134241168208 0 0 0 12.532774478018917,-10.85925622004554 V65.42159098208484 z" fill="#231f20" id="svg_69"/><path d="M228.44197016564866,64.86183550682475 h26.97271028964941 a0,0 0 0 1 0,0 V84.62742328878622 a13.178054628488999,11.431450705866952 0 0 1 -13.178054628488999,11.431450705866952 H241.62002479413763 a13.178054628488999,11.431450705866952 0 0 1 -13.178054628488999,-11.431450705866952 V64.86183550682475 A0,0 0 0 1 228.44197016564866,64.86183550682475 z" fill="#fff" id="svg_70"/><path d="M242.23662582680905,96.63106848047458 H241.62002479413763 a13.85201389675775,12.016084202249703 0 0 1 -13.837674337858415,-12.003645191688367 V64.86183550682475 a0.6596197093694165,0.5721944858214144 0 0 1 0.6452801504700816,-0.5721944858214144 h26.987049848548743 a0.673959268268752,0.5846334963827495 0 0 1 0.6596197093694165,0.5721944858214144 V84.62742328878622 A13.85201389675775,12.016084202249703 0 0 1 242.23662582680905,96.63106848047458 zm-13.135035951790993,-31.209477498389756 V84.62742328878622 a12.547114036918252,10.884134241168208 0 0 0 12.532774478018917,10.85925622004554 h0.6022614737720762 a12.547114036918252,10.884134241168208 0 0 0 12.532774478018917,-10.85925622004554 V65.42159098208484 z" fill="#231f20" id="svg_71"/><path d="M255.42902001419736,64.86183550682475 h26.97271028964941 a0,0 0 0 1 0,0 V84.62742328878622 a13.178054628488999,11.431450705866952 0 0 1 -13.178054628488999,11.431450705866952 h-0.6166010326714116 a13.178054628488999,11.431450705866952 0 0 1 -13.178054628488999,-11.431450705866952 V64.86183550682475 A0,0 0 0 1 255.42902001419736,64.86183550682475 z" fill="#fb2a47" id="svg_72"/><path d="M269.2236756753578,96.63106848047458 h-0.6166010326714116 a13.85201389675775,12.016084202249703 0 0 1 -13.837674337858415,-12.003645191688367 V64.86183550682475 a0.673959268268752,0.5846334963827495 0 0 1 0.6596197093694165,-0.5721944858214144 h26.97271028964941 a0.6596197093694165,0.5721944858214144 0 0 1 0.6596197093694165,0.5721944858214144 V84.62742328878622 A13.85201389675775,12.016084202249703 0 0 1 269.2236756753578,96.63106848047458 zm-13.135035951790993,-31.209477498389756 V84.62742328878622 a12.532774478018917,10.871695230606873 0 0 0 12.518434919119583,10.85925622004554 h0.6166010326714116 A12.547114036918252,10.884134241168208 0 0 0 281.77078971227604,84.62742328878622 V65.42159098208484 z" fill="#231f20" id="svg_73"/><path d="M282.4017303038468,64.86183550682475 h26.97271028964941 a0,0 0 0 1 0,0 V84.62742328878622 a13.178054628488999,11.431450705866952 0 0 1 -13.178054628488999,11.431450705866952 h-0.6166010326714116 a13.178054628488999,11.431450705866952 0 0 1 -13.178054628488999,-11.431450705866952 V64.86183550682475 a0,0 0 0 1 0,0 z" fill="#fff" id="svg_74"/><path d="M296.19638596500715,96.63106848047458 h-0.6022614737720762 A13.85201389675775,12.016084202249703 0 0 1 281.77078971227604,84.62742328878622 V64.86183550682475 a0.6596197093694165,0.5721944858214144 0 0 1 0.6452801504700816,-0.5721944858214144 h26.987049848548743 a0.6596197093694165,0.5721944858214144 0 0 1 0.6452801504700816,0.5721944858214144 V84.62742328878622 A13.85201389675775,12.016084202249703 0 0 1 296.19638596500715,96.63106848047458 zM283.06135001321616,65.42159098208484 V84.62742328878622 a12.547114036918252,10.884134241168208 0 0 0 12.532774478018917,10.85925622004554 h0.6022614737720762 a12.547114036918252,10.884134241168208 0 0 0 12.532774478018917,-10.85925622004554 V65.42159098208484 z" fill="#231f20" id="svg_75"/><path d="M309.3887801523955,64.86183550682475 h26.97271028964941 a0,0 0 0 1 0,0 V84.62742328878622 a13.178054628488999,11.431450705866952 0 0 1 -13.178054628488999,11.431450705866952 h-0.6166010326714116 a13.178054628488999,11.431450705866952 0 0 1 -13.178054628488999,-11.431450705866952 V64.86183550682475 A0,0 0 0 1 309.3887801523955,64.86183550682475 z" fill="#fb2a47" id="svg_76"/><path d="M323.18343581355595,96.63106848047458 h-0.6166010326714116 a13.85201389675775,12.016084202249703 0 0 1 -13.837674337858415,-12.003645191688367 V64.86183550682475 a0.673959268268752,0.5846334963827495 0 0 1 0.6596197093694165,-0.5721944858214144 h26.97271028964941 a0.673959268268752,0.5846334963827495 0 0 1 0.6596197093694165,0.5721944858214144 V84.62742328878622 A13.85201389675775,12.016084202249703 0 0 1 323.18343581355595,96.63106848047458 zm-13.14937551069033,-31.209477498389756 V84.62742328878622 a12.547114036918252,10.884134241168208 0 0 0 12.532774478018917,10.85925622004554 h0.6166010326714116 a12.532774478018917,10.871695230606873 0 0 0 12.518434919119583,-10.85925622004554 V65.42159098208484 z" fill="#231f20" id="svg_77"/><path d="M336.36149044204495,64.86183550682475 h26.97271028964941 a0,0 0 0 1 0,0 V84.62742328878622 a13.178054628488999,11.431450705866952 0 0 1 -13.178054628488999,11.431450705866952 h-0.6166010326714116 a13.178054628488999,11.431450705866952 0 0 1 -13.178054628488999,-11.431450705866952 V64.86183550682475 a0,0 0 0 1 0,0 z" fill="#fff" id="svg_78"/><path d="M350.1561461032054,96.63106848047458 h-0.6022614737720762 a13.85201389675775,12.016084202249703 0 0 1 -13.85201389675775,-12.003645191688367 V64.86183550682475 a0.673959268268752,0.5846334963827495 0 0 1 0.6596197093694165,-0.5721944858214144 h26.987049848548743 a0.6596197093694165,0.5721944858214144 0 0 1 0.6452801504700816,0.5721944858214144 V84.62742328878622 A13.85201389675775,12.016084202249703 0 0 1 350.1561461032054,96.63106848047458 zm-13.135035951790993,-31.209477498389756 V84.62742328878622 a12.547114036918252,10.884134241168208 0 0 0 12.532774478018917,10.85925622004554 h0.6022614737720762 a12.547114036918252,10.884134241168208 0 0 0 12.532774478018917,-10.85925622004554 V65.42159098208484 z" fill="#231f20" id="svg_79"/><path d="M363.3485402905937,64.86183550682475 H390.32125058024315 a0,0 0 0 1 0,0 V84.62742328878622 a13.178054628488999,11.431450705866952 0 0 1 -13.178054628488999,11.431450705866952 h-0.6166010326714116 a13.178054628488999,11.431450705866952 0 0 1 -13.178054628488999,-11.431450705866952 V64.86183550682475 a0,0 0 0 1 0,0 z" fill="#fb2a47" id="svg_80"/><path d="M377.1431959517541,96.63106848047458 h-0.6166010326714116 a13.85201389675775,12.016084202249703 0 0 1 -13.837674337858415,-12.003645191688367 V64.86183550682475 a0.6596197093694165,0.5721944858214144 0 0 1 0.6596197093694165,-0.5721944858214144 H390.32125058024315 a0.673959268268752,0.5846334963827495 0 0 1 0.6596197093694165,0.5721944858214144 V84.62742328878622 A13.85201389675775,12.016084202249703 0 0 1 377.1431959517541,96.63106848047458 zm-13.14937551069033,-31.209477498389756 V84.62742328878622 a12.547114036918252,10.884134241168208 0 0 0 12.532774478018917,10.85925622004554 h0.6166010326714116 a12.532774478018917,10.871695230606873 0 0 0 12.518434919119583,-10.85925622004554 V65.42159098208484 z" fill="#231f20" id="svg_81"/><path d="M288.05151651018485,155.76612468906163 H114.88700324181364 a0.7169779449667574,0.621950528066755 0 0 1 -0.7169779449667574,-0.621950528066755 V107.95056809128953 a0.7169779449667574,0.621950528066755 0 0 1 0.7169779449667574,-0.621950528066755 H288.05151651018485 a0.7169779449667574,0.621950528066755 0 0 1 0.7169779449667574,0.621950528066755 V155.14417416099488 A0.7169779449667574,0.621950528066755 0 0 1 288.05151651018485,155.76612468906163 zm-172.44753532340448,-1.2439010561335095 H287.33453856521805 V108.57251861935627 H115.6039811867804 z" fill="#d1d3d4" id="svg_82"/><path d="M288.05151651018485,192.01340146479208 a0.7169779449667574,0.621950528066755 0 0 1 -0.7169779449667574,-0.621950528066755 V161.79904481130916 H115.6039811867804 v29.59240612541619 a0.7169779449667574,0.621950528066755 0 0 1 -0.7169779449667574,0.621950528066755 a0.7169779449667574,0.621950528066755 0 0 1 -0.7169779449667574,-0.621950528066755 V161.1770942832424 a0.7169779449667574,0.621950528066755 0 0 1 0.7169779449667574,-0.621950528066755 H288.05151651018485 a0.7169779449667574,0.621950528066755 0 0 1 0.7169779449667574,0.621950528066755 v30.214356653482945 A0.7169779449667574,0.621950528066755 0 0 1 288.05151651018485,192.01340146479208 z" fill="#d1d3d4" id="svg_83"/><polygon points="378.31903197202405,270.6404155567851 311.99857254794983,270.6404155567851 320.57364471016695,224.91458331722595 369.7439980405186,224.91458331722595 378.31903197202405,270.6404155567851 " fill="#fff" id="svg_84"/><path d="M378.3190397814996,271.26233775105794 H311.9985798720746 a0.7456570627654275,0.646828549189425 0 0 1 -0.559242797074071,-0.2114631795426967 a0.7743361805640979,0.6717065703120952 0 0 1 -0.15773514789268667,-0.509999433014739 l8.603735339601087,-45.72580282346781 a0.7313175038660923,0.6343895386280902 0 0 1 0.7169779449667574,-0.5224384435760742 h49.170347465820214 a0.7313175038660923,0.6343895386280902 0 0 1 0.7169779449667574,0.5224384435760742 l8.603735339601087,45.72580282346781 a0.7169779449667574,0.621950528066755 0 0 1 -0.17207470679202183,0.509999433014739 A0.7026383860674226,0.60951151750542 0 0 1 378.3190397814996,271.26233775105794 zm-65.48876549326361,-1.2439010561335095 h64.65707107710217 l-8.345623279413054,-44.4819017673343 H321.1758975676491 z" fill="#231f20" id="svg_85"/><path d="M330.2671779098275,231.6440891132057 h-0.11471647119468123 a0.7313175038660923,0.6343895386280902 0 0 1 -0.5879219148727413,-0.7214626125574362 c0.14339558899335156,-0.7463406336801064 3.6279084015317924,-18.44705266245995 15.601440082476639,-18.44705266245995 s15.44370493458395,17.70071202877984 15.587100523577305,18.44705266245995 a0.7313175038660923,0.6343895386280902 0 0 1 -0.5879219148727413,0.7214626125574362 a0.7313175038660923,0.6343895386280902 0 0 1 -0.8316944161614388,-0.509999433014739 c0,-0.17414614785869137 -3.4271545769410996,-17.414614785869134 -14.167484192543125,-17.414614785869134 s-14.153144633643791,17.24046863801044 -14.18182375144246,17.414614785869134 A0.7313175038660923,0.6343895386280902 0 0 1 330.2671779098275,231.6440891132057 z" fill="#231f20" id="svg_86"/><polygon points="332.21734317387813,274.43427259305633 286.5602010908267,274.43427259305633 292.45377113774225,242.95114990209538 326.3094366100929,242.95114990209538 332.21734317387813,274.43427259305633 " fill="#fff" id="svg_87"/><path d="M332.2173579201371,275.0562359722652 H286.56020238465396 a0.7456570627654275,0.646828549189425 0 0 1 -0.7169779449667574,-0.7214626125574362 L291.80848094181067,242.8391986184073 a0.7026383860674226,0.60951151750542 0 0 1 0.7026383860674226,-0.5224384435760742 h33.85569856133028 a0.7026383860674226,0.60951151750542 0 0 1 0.7026383860674226,0.5224384435760742 l5.90789826652608,31.47069672017779 a0.7169779449667574,0.621950528066755 0 0 1 -0.7026383860674226,0.7214626125574362 zm-44.81112156042233,-1.2439010561335095 h43.96508758536156 l-5.664125765237382,-30.226795664044282 H293.0703621249521 z" fill="#231f20" id="svg_88"/><path d="M319.6272252065208,247.81480284294133 a0.7169779449667574,0.621950528066755 0 0 1 -0.7026383860674226,-0.5224384435760742 c0,-0.12439010561335097 -2.323008541692294,-11.81706003326834 -9.535806668057873,-11.81706003326834 s-9.521467109158538,11.69266992765499 -9.550146226957207,11.81706003326834 a0.7169779449667574,0.621950528066755 0 0 1 -1.4339558899335145,-0.19902416898136163 c0.1003769122953461,-0.5224384435760742 2.523762366282986,-12.861936920420488 10.955422999092052,-12.861936920420488 s10.855046086796705,12.339498476844415 10.955422999092052,12.861936920420488 a0.7169779449667574,0.621950528066755 0 0 1 -0.6022614737720762,0.7090236019961009 z" fill="#231f20" id="svg_89"/><path d="M279.84928881976515,120.68811490609667 H189.7825193730411 a0.7169779449667574,0.621950528066755 0 0 1 -0.7169779449667574,-0.621950528066755 a0.7313175038660923,0.6343895386280902 0 0 1 0.7169779449667574,-0.621950528066755 h90.06676944672405 a0.7313175038660923,0.6343895386280902 0 0 1 0.7169779449667574,0.621950528066755 A0.7169779449667574,0.621950528066755 0 0 1 279.84928881976515,120.68811490609667 z" fill="#d1d3d4" id="svg_90"/><path d="M279.84928881976515,129.32078823566323 H189.7825193730411 a0.7169779449667574,0.621950528066755 0 0 1 -0.7169779449667574,-0.621950528066755 a0.7313175038660923,0.6343895386280902 0 0 1 0.7169779449667574,-0.621950528066755 h90.06676944672405 a0.7313175038660923,0.6343895386280902 0 0 1 0.7169779449667574,0.621950528066755 A0.7169779449667574,0.621950528066755 0 0 1 279.84928881976515,129.32078823566323 z" fill="#d1d3d4" id="svg_91"/><path d="M168.9758194101058,192.01340146479208 h-0.14339558899335156 a0.7026383860674226,0.60951151750542 0 0 1 -0.559242797074071,-0.7214626125574362 l1.7637657446182233,-7.699747537466426 a0.7026383860674226,0.60951151750542 0 0 1 0.4445263258793896,-0.4602433907693986 a0.7456570627654275,0.646828549189425 0 0 1 0.6882988271680867,0.0870730739293457 l4.3018676698005445,2.786338365739062 l5.664125765237382,-5.485603657548777 a62.907644891383285,54.569939332577064 0 0 0 -8.015813424728346,-7.376333262871711 a28.765155152066303,24.9526551860382 0 0 0 -8.503358427305741,-4.428287759835293 a24.95083248484315,21.643878376723062 0 0 1 -21.394621877808035,0 a55.522772058225684,48.16384889348949 0 0 0 -7.298835479761589,3.0973136297724393 a29.754584716120426,25.810946914770323 0 0 0 -8.689772692997098,7.525601389607733 l4.631677524485252,5.398530583619431 l5.1909203215593225,-2.1270708059883012 a0.7026383860674226,0.60951151750542 0 0 1 0.6309405915707464,0 a0.7169779449667574,0.621950528066755 0 0 1 0.37282853138271393,0.4602433907693986 l1.4339558899335145,8.234624991603832 a0.7169779449667574,0.621950528066755 0 0 1 -0.5879219148727413,0.7090236019961009 a0.7456570627654275,0.646828549189425 0 0 1 -0.8316944161614388,-0.5224384435760742 l-1.3192394187388334,-7.463406336801057 l-4.846770907975279,1.9902416898136157 a0.7313175038660923,0.6343895386280902 0 0 1 -0.8890526517587795,-0.18658515842002646 l-5.276957674955334,-6.219505280667548 a0.6882988271680867,0.5970725069440844 0 0 1 0,-0.6965845914347655 c0.17207470679202183,-0.23634120066536699 4.144132521907857,-5.709505847652808 9.478448432460533,-8.29682004441051 a47.9371454004774,41.58361230654323 0 0 1 7.85807827683566,-3.2838987881924653 a0.7026383860674226,0.60951151750542 0 0 1 0.6309405915707464,0.07463406336801065 s3.541871048135781,2.0399977320589557 10.195426377427289,2.0399977320589557 s10.181086818527953,-2.0151197109362857 10.209765936326622,-2.0399977320589557 a0.7313175038660923,0.6343895386280902 0 0 1 0.6166010326714116,-0.0870730739293457 a28.98024853555633,25.13924034445823 0 0 1 9.320713284567844,4.751702034430007 a64.26990298682011,55.751645335903895 0 0 1 8.603735339601087,7.985844780377131 a0.7313175038660923,0.6343895386280902 0 0 1 0,0.7960966759254464 l-6.495820181398821,6.294139344035558 a0.7456570627654275,0.646828549189425 0 0 1 -0.9750900051547897,0.0870730739293457 l-3.8860204617198244,-2.487802112267019 l-1.5486723611281958,6.71706570312095 A0.7026383860674226,0.60951151750542 0 0 1 168.9758194101058,192.01340146479208 z" fill="#d1d3d4" id="svg_92"/><path d="M152.71475961825973,176.6387844109819 h0 c-7.169779449667573,0 -9.937314317239256,-8.097795875429147 -10.037691229534602,-8.44608817114653 a0.7313175038660923,0.6343895386280902 0 0 1 0.5018845614767303,-0.7712186548027761 a0.7313175038660923,0.6343895386280902 0 0 1 0.8890526517587795,0.42292635908539356 c0,0.07463406336801065 2.566781042980991,7.463406336801057 8.603735339601087,7.550479410730404 c6.739592682687518,0 11.184855941481413,-7.575357431853073 11.227874618179417,-7.649991495221085 a0.7169779449667574,0.621950528066755 0 0 1 0.960750446255455,-0.2860972429107072 a0.7313175038660923,0.6343895386280902 0 0 1 0.31547029578537333,0.833413707609452 C164.96074291829197,168.64050062004347 160.27170715820938,176.6387844109819 152.71475961825973,176.6387844109819 z" fill="#d1d3d4" id="svg_93"/><rect x="245.0615101778059" y="135.42833482910922" width="34.78777021799352" height="7.998283577408698" rx="3.2100000381469727" fill="#fb2a47" id="svg_94"/><path d="M279.84928881976515,175.33268830204173 H189.7825193730411 a0.7169779449667574,0.621950528066755 0 0 1 -0.7169779449667574,-0.621950528066755 a0.7313175038660923,0.6343895386280902 0 0 1 0.7169779449667574,-0.621950528066755 h90.06676944672405 a0.7313175038660923,0.6343895386280902 0 0 1 0.7169779449667574,0.621950528066755 A0.7169779449667574,0.621950528066755 0 0 1 279.84928881976515,175.33268830204173 z" fill="#d1d3d4" id="svg_95"/><path d="M262.45540387487165,183.9653616316083 H189.7825193730411 a0.7169779449667574,0.621950528066755 0 0 1 -0.7169779449667574,-0.621950528066755 a0.7313175038660923,0.6343895386280902 0 0 1 0.7169779449667574,-0.621950528066755 h72.67288450183052 a0.7313175038660923,0.6343895386280902 0 0 1 0.7169779449667574,0.621950528066755 A0.7169779449667574,0.621950528066755 0 0 1 262.45540387487165,183.9653616316083 z" fill="#d1d3d4" id="svg_96"/><path d="M172.56070913493957,146.536378852551 h-17.781053035175578 a0.7026383860674226,0.60951151750542 0 0 1 -0.7026383860674226,-0.5597554752600794 l-0.9464108873561199,-7.687308526905088 l-1.5486723611281958,7.737064569150429 a0.7026383860674226,0.60951151750542 0 0 1 -0.7026383860674226,0.509999433014739 H134.21672863811742 a0.7456570627654275,0.646828549189425 0 0 1 -0.5449032381747358,-0.2114631795426967 a0.7026383860674226,0.60951151750542 0 0 1 -0.17207470679202183,-0.4851214118920689 l3.914699579518495,-28.33606605872135 a0.7169779449667574,0.621950528066755 0 0 1 0.7169779449667574,-0.5473164646987443 h30.57193957338253 a0.7313175038660923,0.6343895386280902 0 0 1 0.7169779449667574,0.5473164646987443 L173.27768707990634,145.81491623999355 a0.7026383860674226,0.60951151750542 0 0 1 -0.17207470679202183,0.4851214118920689 A0.7456570627654275,0.646828549189425 0 0 1 172.56070913493957,146.536378852551 zm-17.207470679202174,-1.2439010561335095 h16.33275758634273 l-3.685266637129134,-27.09216500258784 H138.76236880920666 l-3.7426248727264735,27.09216500258784 h15.24295110999326 l2.323008541692294,-11.59315784316431 a0.7313175038660923,0.6343895386280902 0 0 1 0.7169779449667574,-0.5224384435760742 h0 a0.7169779449667574,0.621950528066755 0 0 1 0.6882988271680867,0.5597554752600794 z" fill="#d1d3d4" id="svg_97"/><path d="M168.99015896900514,122.74055164871693 h-31.54702957853732 a0.7169779449667574,0.621950528066755 0 0 1 -0.7169779449667574,-0.621950528066755 a0.7169779449667574,0.621950528066755 0 0 1 0.7169779449667574,-0.621950528066755 h31.54702957853732 a0.7169779449667574,0.621950528066755 0 0 1 0.7169779449667574,0.621950528066755 A0.7313175038660923,0.6343895386280902 0 0 1 168.99015896900514,122.74055164871693 z" fill="#d1d3d4" id="svg_98"/><path d="M157.01662728806028,126.27323064813612 a0.7313175038660923,0.6343895386280902 0 0 1 -0.6596197093694165,-0.3856093274013883 L154.14871550819325,120.93689511732336 l-3.1833820756524025,4.614872918255321 a0.7456570627654275,0.646828549189425 0 0 1 -0.9894295640541256,0.2114631795426967 a0.7169779449667574,0.621950528066755 0 0 1 -0.24377250128869757,-0.8582917287321218 l3.914699579518495,-5.672188815968805 a0.6596197093694165,0.5721944858214144 0 0 1 0.673959268268752,-0.29853625347204243 a0.7169779449667574,0.621950528066755 0 0 1 0.6166010326714116,0.3856093274013883 l2.867911779867029,6.119993196176867 a0.7169779449667574,0.621950528066755 0 0 1 -0.4015076491813844,0.8085356864867811 A0.5879219148727413,0.509999433014739 0 0 1 157.01662728806028,126.27323064813612 z" fill="#d1d3d4" id="svg_99"/><path d="M162.13584981512292,187.89608896899017 a3.92903913841783,3.4082888938058167 0 1 1 3.92903913841783,-3.4082888938058167 A3.92903913841783,3.4082888938058167 0 0 1 162.13584981512292,187.89608896899017 zm0,-5.572676731478124 a2.4950832484843155,2.164387837672307 0 1 0 2.4950832484843155,2.164387837672307 A2.4950832484843155,2.164387837672307 0 0 0 162.13584981512292,182.32341223751206 z" fill="#d1d3d4" id="svg_100"/><polygon points="40.263940291202516,281.4872334833434 89.31956803472417,281.4872334833434 83.9422272872514,219.75240337262574 34.88660910140766,219.75240337262574 40.263940291202516,281.4872334833434 " fill="#231f20" id="svg_101"/><polygon points="24.418724847600743,281.4872334833434 73.47435736996135,281.4872334833434 83.9422272872514,219.75240337262574 34.88660910140766,219.75240337262574 24.418724847600743,281.4872334833434 " fill="#fff" id="svg_102"/><path d="M73.47435714053373,282.0593989182968 H24.418726145908202 a0.6309405915707464,0.5473164646987443 0 0 1 -0.4875450025773953,-0.19902416898136163 a0.6309405915707464,0.5473164646987443 0 0 1 -0.15773514789268667,-0.4478043802080639 l10.467877996514655,-61.747248426467415 a0.6309405915707464,0.5473164646987443 0 0 1 0.6452801504700816,-0.4851214118920689 H83.88487690145105 a0.6596197093694165,0.5721944858214144 0 0 1 0.4875450025773953,0.19902416898136163 a0.6309405915707464,0.5473164646987443 0 0 1 0.15773514789268667,0.4478043802080639 l-10.467877996514655,61.747248426467415 A0.6452801504700816,0.5597554752600794 0 0 1 73.47435714053373,282.0593989182968 zm-48.29563437296078,-1.1319499610814936 h47.72205201698736 l10.281463730823301,-60.61529846538592 H35.46018649839626 z" fill="#231f20" id="svg_103"/><path d="M66.23287989636948,274.08599314848107 H32.26246486384453 a0.7456570627654275,0.646828549189425 0 0 1 -0.7169779449667574,-0.7214626125574362 l8.603735339601087,-47.70360550272009 a0.7026383860674226,0.60951151750542 0 0 1 0.7026383860674226,-0.5224384435760742 h34.41494135840435 a0.7456570627654275,0.646828549189425 0 0 1 0.5449032381747358,0.2114631795426967 a0.7743361805640979,0.6717065703120952 0 0 1 0.15773514789268667,0.509999433014739 l-9.148638577775824,47.70360550272009 A0.7169779449667574,0.621950528066755 0 0 1 66.23287989636948,274.08599314848107 zm-33.08136238076618,-1.2439010561335095 h32.46476134809477 l8.91920563538646,-46.45970444658658 h-32.980985468470834 z" fill="#d1d3d4" id="svg_104"/><path d="M66.83514137014157,237.58993616152387 H45.842027141514905 a0.7169779449667574,0.621950528066755 0 0 1 -0.7169779449667574,-0.621950528066755 a0.7169779449667574,0.621950528066755 0 0 1 0.7169779449667574,-0.621950528066755 h20.993114228626652 a0.7169779449667574,0.621950528066755 0 0 1 0.7169779449667574,0.621950528066755 A0.7313175038660923,0.6343895386280902 0 0 1 66.83514137014157,237.58993616152387 z" fill="#d1d3d4" id="svg_105"/><path d="M62.74836708383104,244.76724525541425 H44.62316463507143 a0.7313175038660923,0.6343895386280902 0 0 1 -0.7169779449667574,-0.621950528066755 a0.7169779449667574,0.621950528066755 0 0 1 0.7169779449667574,-0.621950528066755 h18.125202448759623 a0.7169779449667574,0.621950528066755 0 0 1 0.7169779449667574,0.621950528066755 A0.7169779449667574,0.621950528066755 0 0 1 62.74836708383104,244.76724525541425 z" fill="#d1d3d4" id="svg_106"/><path d="M64.39741635725458,252.46699279288066 H43.40430212862793 a0.7169779449667574,0.621950528066755 0 0 1 -0.7169779449667574,-0.621950528066755 a0.7169779449667574,0.621950528066755 0 0 1 0.7169779449667574,-0.621950528066755 h20.993114228626652 a0.7169779449667574,0.621950528066755 0 0 1 0.7169779449667574,0.621950528066755 A0.7169779449667574,0.621950528066755 0 0 1 64.39741635725458,252.46699279288066 z" fill="#d1d3d4" id="svg_107"/><path d="M60.32498162984339,259.644301886771 H42.18543962218444 a0.7169779449667574,0.621950528066755 0 0 1 -0.7169779449667574,-0.621950528066755 a0.7313175038660923,0.6343895386280902 0 0 1 0.7169779449667574,-0.621950528066755 h18.139542007658957 a0.7313175038660923,0.6343895386280902 0 0 1 0.7169779449667574,0.621950528066755 A0.7169779449667574,0.621950528066755 0 0 1 60.32498162984339,259.644301886771 z" fill="#d1d3d4" id="svg_108"/></g></g></svg>