<svg xmlns="http://www.w3.org/2000/svg" enable-background="new 0 0 512 512" height="517.8823528793032" width="606.11764606885"><rect id="backgroundrect" width="100%" height="100%" x="0" y="0" fill="none" stroke="none"/> <g class="currentLayer" style=""><title>Layer 1</title><g id="svg_1" class=""><g id="svg_2"><g id="svg_3"><path d="m577.5872062770808,393.8613147359956 h-548.1742728051256 c-6.3582422886693415,0 -11.513107918582932,-4.912775584540917 -11.513107918582932,-10.97241316172717 v-256.8948955942124 l5.757128637734043,-15.738407937276227 h559.6873807237084 l5.757128637734043,15.738407937276227 v256.8948955942124 c-0.0011493568851535345,6.0607329563578345 -5.156014986798745,10.97241316172717 -11.514257275468086,10.97241316172717 z" fill="#d3effb" data-original="#D3EFFB" class="" style="fill:#FFFFFF" data-old_color="#d3effb" id="svg_4"/></g><g id="svg_5"><path d="m583.3443349148146,110.25559804277975 h-37.53684651222921 v231.37365627554604 c0,6.059637577186254 -5.154865629913593,10.97241316172717 -11.513107918582932,10.97241316172717 h-516.3945549306304 v30.28723409421546 c0,6.059637577186254 5.154865629913593,10.97241316172717 11.513107918582932,10.97241316172717 h548.1742728051256 c6.3582422886693415,0 11.513107918582932,-4.912775584540917 11.513107918582932,-10.97241316172717 v-256.8948955942124 z" fill="#b1e4f9" data-original="#B1E4F9" class="" style="fill:#D4E2F3" data-old_color="#b1e4f9" id="svg_6"/></g><g id="svg_7"><path d="m589.1003141956637,125.994005980056 h-571.2004886422915 v-97.6738653507088 c0,-6.0497791646420245 5.1456707748323645,-10.953791715810292 11.493568851535322,-10.953791715810292 h548.2133509392208 c6.3478980767029585,0 11.493568851535322,4.904012551168268 11.493568851535322,10.953791715810292 z" fill="#5766cb" data-original="#5766CB" class="" style="fill:#DDEAFB" data-old_color="#5766cb" id="svg_8"/></g><g id="svg_9"><path d="m577.5872062770808,17.366348913536907 h-31.779717874495162 v108.62765706651909 h43.2928257930781 v-97.6552439047919 c0,-6.059637577186254 -5.154865629913593,-10.97241316172717 -11.513107918582932,-10.97241316172717 z" fill="#3d4fc3" data-original="#3D4FC3" class="active-path" style="fill:#97BEED" data-old_color="#3d4fc3" id="svg_10"/></g><g id="svg_11"><path d="m536.5540161202144,78.27490774930004 h-27.16275126683342 c-22.55153144359745,0 -42.358398645448275,15.250964205922669 -47.09604772605113,36.26471823353313 l-15.05657519551127,66.78855422881009 h-320.5269013471913 c-6.0858447068879515,0 -11.84757077216261,2.622337736764984 -15.672630485953563,7.134204544507244 s-5.304282024983553,10.430200471794558 -4.026197168692823,16.10097844306955 l46.46620015298699,206.1087356830296 c1.9941341957413776,8.848472948031555 10.202841069507905,15.167715388882511 19.698827654646387,15.167715388882511 h243.87169324876163 c9.495986585138484,0 17.703544102019862,-6.320337820022538 19.698827654646387,-15.167715388882511 l64.94326143871518,-288.06610067989374 c0.7746665405934813,-3.435109082078107 4.012404886070981,-5.92928745576811 7.699541773643509,-5.92928745576811 h27.16275126683342 c11.128073362056499,0 20.14822619674142,-8.596535738567916 20.14822619674142,-19.20199687781544 s-9.02015283468492,-19.19980611947228 -20.14822619674142,-19.19980611947228 zm-265.51293403931743,307.15198736552156 l-2.2389472122790806,-25.917766578778732 c-0.11033826097473927,-1.2761167348918994 0.9470700733665116,-2.3704005273013475 2.2906682721109894,-2.3704005273013475 h45.79382637517218 c1.3435981987444796,0 2.401006533085728,1.094283792409448 2.2906682721109894,2.3704005273013475 l-2.2389472122790806,25.917766578778732 c-0.09769533523805055,1.1359082009295272 -1.0941877546661627,2.0111161590227695 -2.2906682721109894,2.0111161590227695 h-41.31593195061402 c-1.1964805174448268,0 -2.1929729368729394,-0.8741125789216606 -2.2906682721109894,-2.0111161590227695 zm-5.936428311817993,-68.70218164156213 l-2.2389472122790806,-25.917766578778732 c-0.11033826097473927,-1.2761167348918994 0.9470700733665116,-2.3704005273013475 2.2906682721109894,-2.3704005273013475 h57.665533641923005 c1.3435981987444796,0 2.401006533085728,1.094283792409448 2.2906682721109894,2.3704005273013475 l-2.2389472122790806,25.917766578778732 c-0.09769533523805055,1.1359082009295272 -1.0941877546661627,2.0111161590227695 -2.2906682721109894,2.0111161590227695 h-53.186489860479696 c-1.1964805174448268,0 -2.1929729368729394,-0.8752079580932429 -2.2918176289961436,-2.0111161590227695 zm-95.12192517219147,-28.288167106080078 h50.12805118908614 c1.1964805174448268,0 2.1929729368729394,0.8741125789216606 2.2906682721109894,2.0111161590227695 l2.2389472122790806,25.917766578778732 c0.11033826097473927,1.2761167348918994 -0.9470700733665116,2.3704005273013475 -2.2906682721109894,2.3704005273013475 h-46.52366799724467 c-1.083843542699781,0 -2.019420047214756,-0.7207594949003181 -2.2469927104751553,-1.7306990910980278 l-5.843330404120557,-25.917766578778732 c-0.3080276452211469,-1.364842447789962 0.7827120387895558,-2.65081759522609 2.2469927104751553,-2.65081759522609 zm89.18664621725863,-40.41510991465366 l-2.2389472122790806,-25.917766578778732 c-0.11033826097473927,-1.2761167348918994 0.9470700733665116,-2.3704005273013475 2.2906682721109894,-2.3704005273013475 h69.5360915517887 c1.3435981987444796,0 2.401006533085728,1.094283792409448 2.2906682721109894,2.3704005273013475 l-2.2389472122790806,25.917766578778732 c-0.09769533523805055,1.1359082009295272 -1.0941877546661627,2.0111161590227695 -2.2906682721109894,2.0111161590227695 h-65.05819712723053 c-1.1964805174448268,0 -2.1918235799877857,-0.8752079580932429 -2.2906682721109894,-2.0111161590227695 zm108.69927805651015,40.41510991465366 h52.377342613331614 c1.4642806716856,0 2.555020355696302,1.2870705266077094 2.2469927104751553,2.65081759522609 l-5.843330404120557,25.917766578778732 c-0.22757266326039974,1.0099395961977091 -1.1642985246605282,1.7306990910980278 -2.2469927104751553,1.7306990910980278 h-48.772959421490135 c-1.3435981987444796,0 -2.401006533085728,-1.094283792409448 -2.2906682721109894,-2.3704005273013475 l2.2389472122790806,-25.917766578778732 c0.09769533523805055,-1.1370035801011085 1.0941877546661627,-2.0111161590227695 2.2906682721109894,-2.0111161590227695 zm62.02274559354006,-38.40399375563088 h-58.3264138508863 c-1.3435981987444796,0 -2.401006533085728,-1.094283792409448 -2.2906682721109894,-2.3704005273013475 l2.2389472122790806,-25.917766578778732 c0.09769533523805055,-1.1359082009295272 1.0941877546661627,-2.0111161590227695 2.2906682721109894,-2.0111161590227695 h61.930797042727775 c1.4642806716856,0 2.555020355696302,1.2870705266077094 2.2469927104751553,2.65081759522609 l-5.843330404120557,25.917766578778732 c-0.22642330637524624,1.008844217026128 -1.1631491677753747,1.7306990910980278 -2.2469927104751553,1.7306990910980278 zm-213.42637871792974,-28.288167106080078 l2.2389472122790806,25.917766578778732 c0.11033826097473927,1.2761167348918994 -0.9470700733665116,2.3704005273013475 -2.2906682721109894,2.3704005273013475 h-56.077122426640834 c-1.083843542699781,0 -2.019420047214756,-0.7207594949003181 -2.2469927104751553,-1.7306990910980278 l-5.843330404120557,-25.917766578778732 c-0.3080276452211469,-1.3637470686183817 0.7838613956747096,-2.65081759522609 2.2469927104751553,-2.65081759522609 h59.681505618482305 c1.1964805174448268,0 2.1929729368729394,0.8752079580932429 2.2906682721109894,2.0111161590227695 zm-30.99355776505015,135.3954378824447 h40.57459675968999 c1.1964805174448268,0 2.1929729368729394,0.8741125789216606 2.2906682721109894,2.0111161590227695 l2.2389472122790806,25.917766578778732 c0.11033826097473927,1.2761167348918994 -0.9470700733665116,2.3704005273013475 -2.2906682721109894,2.3704005273013475 h-36.97021356784851 c-1.083843542699781,0 -2.019420047214756,-0.7207594949003181 -2.2469927104751553,-1.7306990910980278 l-5.843330404120557,-25.917766578778732 c-0.3080276452211469,-1.364842447789962 0.7838613956747096,-2.65081759522609 2.2469927104751553,-2.65081759522609 zm171.93229645011687,27.927787358629917 l2.2389472122790806,-25.917766578778732 c0.09769533523805055,-1.1359082009295272 1.0941877546661627,-2.0111161590227695 2.2906682721109894,-2.0111161590227695 h42.82273882705031 c1.4642806716856,0 2.555020355696302,1.2870705266077094 2.2469927104751553,2.65081759522609 l-5.843330404120557,25.917766578778732 c-0.22757266326039974,1.0099395961977091 -1.1642985246605282,1.7306990910980278 -2.2469927104751553,1.7306990910980278 h-39.21950499209398 c-1.3424488418593263,0 -2.3998571762005754,-1.094283792409448 -2.289518915225836,-2.3704005273013475 z" fill="#dd636e" data-original="#DD636E" class="" style="fill:#FB2A47" data-old_color="#dd636e" id="svg_12"/></g><g id="svg_13"><g id="svg_14"><path d="m537.270065459665,78.30995988279062 c0.005746784425767668,0.2552233469783798 0.03333134966945252,0.5049697980988543 0.02758456524368483,0.7623839034203973 c-0.2057348824424828,10.435677367652465 -9.145432735166656,18.8350448553358 -20.144778126085956,18.8350448553358 h-15.488733384329 c-10.605115979311641,0 -19.76893842464075,7.059718760839733 -21.992943997412837,16.94222964684378 l-62.325026454335436,277.0520631096465 c-1.9941341957413776,8.848472948031555 -10.202841069507905,15.167715388882511 -19.698827654646387,15.167715388882511 h-243.86939453499133 c-0.37698905833035895,0 -0.7482313322349502,-0.026289100117944754 -1.1217723199098475,-0.04600592520640332 l0.8229395297699295,3.6498033997079893 c1.9941341957413776,8.848472948031555 10.20169171262275,15.167715388882511 19.698827654646387,15.167715388882511 h243.87169324876163 c9.495986585138484,0 17.703544102019862,-6.320337820022538 19.698827654646387,-15.167715388882511 l64.94326143871518,-288.06610067989374 c0.7746665405934813,-3.435109082078107 4.012404886070981,-5.92928745576811 7.699541773643509,-5.92928745576811 h27.16275126683342 c11.128073362056499,0 20.14822619674142,-8.596535738567916 20.14822619674142,-19.20199687781544 c0,-10.373240754872347 -8.638566348813947,-18.80327885935995 -19.432176857290766,-19.165849365153267 z" fill="#d82e3d" data-original="#D82E3D" class="" id="svg_15"/></g></g><g id="svg_16"><circle cx="218.9096935631493" cy="460.4910555653729" fill="#ecf4ff" r="43.37042999267578" data-original="#ECF4FF" class="" id="svg_17"/></g><g id="svg_18"><circle cx="369.0697437234583" cy="460.4910555653729" fill="#ecf4ff" r="43.37042999267578" data-original="#ECF4FF" class="" id="svg_19"/></g><g id="svg_20"><path d="m243.55536152933536,419.69035560187626 c4.185957775729165,6.915128710191037 6.59271109324066,14.93111348782101 6.59271109324066,23.48821557621201 c0,26.00430153333363 -22.119373254779727,47.08377831123896 -49.40395635143943,47.08377831123896 c-8.978775986819393,0 -17.389769672372942,-2.2937239852906752 -24.64565968834719,-6.283094928188783 c8.535124229150128,14.099720696591007 24.504288791473307,23.596658114198533 42.81124525819876,23.596658114198533 c27.28573245354485,0 49.40510570832458,-21.080572157076908 49.40510570832458,-47.08377831123896 c-0.0011493568851535345,-17.448294824114214 -9.966073551166277,-32.66749303406104 -24.75944601997739,-40.80177876222176 z" fill="#ddeafb" data-original="#DDEAFB" class="" style="fill:#D4E2F3" data-old_color="#ddeafb" id="svg_21"/></g><g id="svg_22"><path d="m393.7153905039889,419.69035560187626 c4.185957775729165,6.915128710191037 6.59271109324066,14.93111348782101 6.59271109324066,23.48821557621201 c0,26.00430153333363 -22.119373254779727,47.08377831123896 -49.40510570832458,47.08377831123896 c-8.978775986819393,0 -17.389769672372942,-2.2937239852906752 -24.64565968834719,-6.283094928188783 c8.535124229150128,14.099720696591007 24.504288791473307,23.596658114198533 42.81124525819876,23.596658114198533 c27.2845830966597,0 49.40395635143943,-21.080572157076908 49.40395635143943,-47.08377831123896 c0.0011493568851535345,-17.448294824114214 -9.96377483739597,-32.66749303406104 -24.75714730620708,-40.80177876222176 z" fill="#ddeafb" data-original="#DDEAFB" class="" style="fill:#D4E2F3" data-old_color="#ddeafb" id="svg_23"/></g><g id="svg_24"><path d="m577.5872062770808,9.136765197448636 h-548.1742728051256 c-11.109683651894041,0 -20.14822619674142,8.614061805313211 -20.14822619674142,19.20199687781544 v354.55013949900433 c0,10.587935072502226 9.038542544847378,19.20199687781544 20.14822619674142,19.20199687781544 h113.30015366777974 l2.3251489786655957,10.31189952126381 c2.473416016850401,10.976794678413494 11.830330418885303,19.321393207517772 23.148047666992138,21.247069791157223 c-4.652596671101499,7.954643544021434 -7.315656574002233,17.10544114340935 -7.315656574002233,26.841171220421543 c0,30.499737653502176 26.03638151938296,55.31336202732722 58.039074629597906,55.31336202732722 s58.039074629597906,-24.813624373825053 58.039074629597906,-55.31336202732722 c0,-9.561564788730802 -2.5607671401220697,-18.563390820783702 -7.0604993454981475,-26.41835486019126 h48.20172904956883 c-4.499732205376079,7.854964039407561 -7.0604993454981475,16.856790071460455 -7.0604993454981475,26.41835486019126 c0,30.499737653502176 26.03638151938296,55.31336202732722 58.039074629597906,55.31336202732722 s58.039074629597906,-24.813624373825053 58.039074629597906,-55.31336202732722 c0,-9.626192159854087 -2.5986959173321367,-18.682787150486035 -7.154746610080737,-26.574994081727347 c12.239501469999965,-1.200535572052808 22.61129800162544,-9.870461715116654 25.236429127316107,-21.514342309022997 l62.71350908151733,-278.1781128980319 h72.56119887351278 v248.66531187812421 c0,1.5127186359534015 -1.2907277820274166,2.7428294456388977 -2.8779896404244463,2.7428294456388977 h-94.08520526178297 c-4.7698310733871585,0 -8.635118278158485,3.6837601540270013 -8.635118278158485,8.229583716088271 s3.8652872047713283,8.229583716088271 8.635118278158485,8.229583716088271 h94.08520526178297 c11.109683651894041,0 20.14822619674142,-8.614061805313211 20.14822619674142,-19.20199687781544 v-354.55013949900433 c0.0011493568851535345,-10.587935072502226 -9.037393187962223,-19.20199687781544 -20.147076839856265,-19.20199687781544 zm-358.6775044360924,490.2084683826285 c-22.480271316717936,0 -40.76998743016609,-17.430768757368917 -40.76998743016609,-38.85528997432227 s18.288566756563004,-38.85528997432227 40.76998743016609,-38.85528997432227 s40.76998743016609,17.430768757368917 40.76998743016609,38.85528997432227 c0,21.42561659612493 -18.289716113448158,38.85528997432227 -40.76998743016609,38.85528997432227 zm150.1600289746535,0 c-22.480271316717936,0 -40.76998743016609,-17.430768757368917 -40.76998743016609,-38.85528997432227 s18.289716113448158,-38.85528997432227 40.76998743016609,-38.85528997432227 s40.76998743016609,17.430768757368917 40.76998743016609,38.85528997432227 c-0.0011493568851535345,21.42561659612493 -18.290865470333312,38.85528997432227 -40.76998743016609,38.85528997432227 zm186.83830589367307,-381.5808113161094 c5.790459987403495,-5.021218122527438 9.429323885799578,-12.257292929991715 9.429323885799578,-20.28751763685224 c0,-15.126090980362433 -12.911875247814779,-27.431580593903718 -28.783344474899902,-27.431580593903718 h-27.16390062371858 c-26.593819608682427,0 -49.9510502287725,17.986125997360503 -55.539223404388984,42.76579361686654 l-1.1160255354840796,4.9522092347178335 h-81.54112421721734 c-4.7698310733871585,0 -8.635118278158485,3.6837601540270013 -8.635118278158485,8.229583716088271 s3.8652872047713283,8.229583716088271 8.635118278158485,8.229583716088271 h77.8321495488269 l-8.763846249295682,38.8761021785823 h-313.5503050543093 c-8.737411040937152,0 -16.89784492552723,3.7155261500028507 -22.389472122790806,10.192503191561476 c-5.490477840378423,6.475881662387044 -7.586904798898465,14.859913841668241 -5.751381853308274,23.00186722403003 l21.29068694058403,94.4403060362016 c1.0022392038538803,4.445048678275817 5.591621246271934,7.265650045096966 10.255711486224968,6.318147061679376 c4.6617915261827285,-0.9551706376186584 7.629431003649147,-5.33121042808487 6.6283411566804205,-9.774068348017524 l-21.29068694058403,-94.4403060362016 c-0.733289692727954,-3.2576576562819812 0.10459147654897154,-6.611708679663092 2.301012484077371,-9.202280420452226 c2.1964210075284,-2.5894763616175536 5.460594561364432,-4.07590589745301 8.955788849116322,-4.07590589745301 h320.5269013471913 c4.069872730328657,0 7.586904798898465,-2.7088726913198853 8.443175678337848,-6.501075383333409 l15.05657519551127,-66.78855422881009 c3.8882743424744017,-17.246745056543308 20.144778126085956,-29.763642850199727 38.65402140459844,-29.763642850199727 h27.16390062371858 c6.3478980767029585,0 11.513107918582932,4.922633997085146 11.513107918582932,10.97241316172717 s-5.165209841879973,10.97241316172717 -11.513107918582932,10.97241316172717 h-27.16390062371858 c-7.728275695772351,0 -14.517526816374264,5.227149406784671 -16.14271745198136,12.43036283910152 l-64.94326143871518,288.06610067989374 c-1.1321165318762292,5.022313501699021 -5.865168184938474,8.667735384720686 -11.255651976308538,8.667735384720686 h-11.363691523512973 c-9.995956830180269,-7.767333705681078 -22.743474043418097,-12.435839734959425 -36.61621164722123,-12.435839734959425 s-26.62025481704096,4.668506029278347 -36.61621164722123,12.435839734959425 h-76.92645632332592 c-9.995956830180269,-7.767333705681078 -22.743474043418097,-12.435839734959425 -36.61621164722123,-12.435839734959425 s-26.62025481704096,4.668506029278347 -36.61621164722123,12.435839734959425 h-9.11440009926751 c-5.390483791370066,0 -10.124684801317462,-3.6454218830216654 -11.256801333193694,-8.667735384720686 l-17.72193381218231,-78.60550473182623 c-1.0010898469687268,-4.445048678275817 -5.588173175616473,-7.262363907582224 -10.255711486224968,-6.318147061679376 c-4.662940883067881,0.9551706376186584 -7.629431003649147,5.33121042808487 -6.6283411566804205,9.774068348017524 l11.686660808241113,51.835533157557464 h-109.59232835627444 c-1.5872618583970284,0 -2.8779896404244463,-1.2301108096854958 -2.8779896404244463,-2.7428294456388977 v-248.66640725729576 h304.7186467487896 c4.7698310733871585,0 8.635118278158485,-3.6837601540270013 8.635118278158485,-8.229583716088271 s-3.8652872047713283,-8.229583716088271 -8.635118278158485,-8.229583716088271 h-304.7186467487896 v-89.4267555678752 c0,-1.5127186359534015 1.2918771389125703,-2.7428294456388977 2.8779896404244463,-2.7428294456388977 h548.1742728051256 c1.5872618583970284,0 2.8779896404244463,1.2301108096854958 2.8779896404244463,2.7428294456388977 v89.4267555678752 z" data-original="#000000" class="" style="fill:#000000" id="svg_25"/><circle cx="73.09079554026341" cy="71.37182861113621" r="14.781702995300293" data-original="#000000" class="" style="fill:#000000" id="svg_26"/><circle cx="124.29694134801267" cy="71.37182861113621" r="14.781702995300293" data-original="#000000" class="" style="fill:#000000" id="svg_27"/><circle cx="175.5030915402105" cy="71.37182861113621" r="14.781702995300293" data-original="#000000" class="" style="fill:#000000" id="svg_28"/><path d="m319.3830326704545,348.9102396718249 h-50.78548332739397 c-2.4136494588224178,0 -4.716960656670096,0.961742912648145 -6.351346147358418,2.6541037327408343 s-2.4527275929176375,3.9587003260938403 -2.2538888517860767,6.250233553041353 l2.6182349843797463,30.29928326510285 c0.36894356013428437,4.2686926316512706 4.111249578194185,7.554830146394357 8.605234999144496,7.554830146394357 h45.55016271551963 c4.493985420950312,0 8.237440795895367,-3.2850421355715067 8.605234999144496,-7.554830146394357 l2.6170856274945944,-30.29928326510285 c0.19768938424640786,-2.291533226947513 -0.6195033610977544,-4.557872732948662 -2.2538888517860767,-6.250233553041353 c-1.6355348475734777,-1.6912654409211094 -3.9388460454211547,-2.6541037327408343 -6.351346147358418,-2.6541037327408343 zm-10.57178462964219,30.29928326510285 h-29.643063424994747 l-1.1953311605596735,-13.840115832926303 h32.0360244598844 z" data-original="#000000" class="" style="fill:#000000" id="svg_29"/><path d="m150.03678921193304,251.76106094430347 c0.855121522554229,3.792202692013523 4.372153591124036,6.501075383333409 8.442026321452692,6.501075383333409 h60.42973695071725 c4.905455185835275,0.10187026295703588 9.11440009926751,-4.254452702420718 8.605234999144496,-8.904337285782185 l-2.6170856274945944,-30.29928326510285 c-0.36894356013428437,-4.2686926316512706 -4.111249578194185,-7.554830146394357 -8.605234999144496,-7.554830146394357 h-64.64327929169012 c-5.3364640177678515,-0.1270639839033994 -9.693675969384886,5.01355046832637 -8.442026321452692,9.958092048843135 zm58.30227735629807,-23.79820788176944 l1.1953311605596735,13.840115832926303 h-44.07783654563796 l-3.1205039431918395,-13.840115832926303 z" data-original="#000000" class="" style="fill:#000000" id="svg_30"/><path d="m182.6268036904615,348.9102396718249 c-2.609040129298518,0 -5.077858718608305,1.1238590300421358 -6.716841636837242,3.0572032678826524 c-1.6389829182289368,1.9344396170120977 -2.2734279188336872,4.4702423992221805 -1.7251846846154524,6.900888780960484 l6.830627968467443,30.29928326510285 c0.855121522554229,3.792202692013523 4.372153591124036,6.501075383333409 8.442026321452692,6.501075383333409 h41.32397744881009 c2.4136494588224178,0 4.716960656670096,-0.961742912648145 6.351346147358418,-2.6541037327408343 s2.4527275929176375,-3.9587003260938403 2.2538888517860767,-6.250233553041353 l-2.6182349843797463,-30.29928326510285 c-0.36894356013428437,-4.2686926316512706 -4.111249578194185,-7.554830146394357 -8.605234999144496,-7.554830146394357 zm13.807224261349381,30.29928326510285 l-3.1205039431918395,-13.840115832926303 h26.896100469477805 l1.1953311605596735,13.840115832926303 z" data-original="#000000" class="" style="fill:#000000" id="svg_31"/><path d="m167.13692094924733,280.2069626510912 c-2.609040129298518,0 -5.076709361723151,1.1238590300421358 -6.716841636837242,3.0572032678826524 c-1.6389829182289368,1.9344396170120977 -2.2734279188336872,4.4702423992221805 -1.7251846846154524,6.900888780960484 l6.830627968467443,30.30037864427443 c0.8539721656690754,3.792202692013523 4.372153591124036,6.501075383333409 8.442026321452692,6.501075383333409 h50.877431878206245 c2.4136494588224178,0 4.716960656670096,-0.961742912648145 6.351346147358418,-2.6541037327408343 s2.4527275929176375,-3.9587003260938403 2.2538888517860767,-6.250233553041353 l-2.6182349843797463,-30.30037864427443 c-0.36894356013428437,-4.2686926316512706 -4.111249578194185,-7.554830146394357 -8.605234999144496,-7.554830146394357 zm13.807224261349381,30.29928326510285 l-3.1205039431918395,-13.841211212097884 h36.44955489887396 l1.1953311605596735,13.841211212097884 z" data-original="#000000" class="" style="fill:#000000" id="svg_32"/><path d="m250.7376927046598,250.7073061812425 c0.36894356013428437,4.2686926316512706 4.111249578194185,7.554830146394357 8.605234999144496,7.554830146394357 h69.29242789213615 c4.493985420950312,0 8.237440795895367,-3.2850421355715067 8.605234999144496,-7.554830146394357 l2.6170856274945944,-30.29928326510285 c0.5057170294675536,-4.6498845833614695 -3.698630456424067,-9.006207548739221 -8.606384356029649,-8.904337285782185 h-74.5277485040105 c-4.902007115179814,-0.10187026295703588 -9.116698813037818,4.254452702420718 -8.605234999144496,8.904337285782185 zm71.14059376346303,-22.74445311870849 l-1.1964805174448268,13.840115832926303 h-53.386477958496414 l-1.1953311605596735,-13.840115832926303 z" data-original="#000000" class="" style="fill:#000000" id="svg_33"/><path d="m363.13445186070885,326.9654133483706 h53.126723302451715 c4.069872730328657,0 7.586904798898465,-2.7088726913198853 8.443175678337848,-6.501075383333409 l6.830627968467443,-30.30037864427443 c0.547093877333082,-2.4306463817383035 -0.0862017663865152,-4.966449163948386 -1.7263340415006057,-6.900888780960484 c-1.6389829182289368,-1.933344237840517 -4.107801507538723,-3.0572032678826524 -6.716841636837242,-3.0572032678826524 h-57.33911628653941 c-4.493985420950312,0 -8.237440795895367,3.2850421355715067 -8.605234999144496,7.554830146394357 l-2.6170856274945944,30.30037864427443 c-0.19768938424640786,2.291533226947513 0.6195033610977544,4.557872732948662 2.2538888517860767,6.250233553041353 c1.6332361338031691,1.6912654409211094 3.9365473316508472,2.6541037327408343 6.350196790473266,2.6541037327408343 zm10.570635272757034,-30.30037864427443 h38.698846323119426 l-3.1205039431918395,13.841211212097884 h-36.77482289737242 z" data-original="#000000" class="" style="fill:#000000" id="svg_34"/><path d="m369.06973081564166,258.2621363276369 h62.68017773184787 c4.069872730328657,0 7.586904798898465,-2.7088726913198853 8.443175678337848,-6.501075383333409 l6.830627968467443,-30.29928326510285 c1.250500291047043,-4.9445415805167645 -3.1067116605699976,-10.084060653574955 -8.443175678337848,-9.958092048843135 h-66.89257071593558 c-4.493985420950312,0 -8.237440795895367,3.2850421355715067 -8.605234999144496,7.554830146394357 l-2.6170856274945944,30.29928326510285 c-0.5114638138933215,4.6498845833614695 3.698630456424067,9.006207548739221 8.604085642259342,8.904337285782185 zm10.570635272757034,-30.29928326510285 h48.252300752515595 l-3.1205039431918395,13.840115832926303 h-46.32827732676857 z" data-original="#000000" class="" style="fill:#000000" id="svg_35"/><path d="m325.31831162538737,280.2069626510912 h-62.65719059414481 c-2.4136494588224178,0 -4.716960656670096,0.961742912648145 -6.351346147358418,2.6541037327408343 s-2.4527275929176375,3.9587003260938403 -2.2538888517860767,6.250233553041353 l2.6170856274945944,30.30037864427443 c0.36894356013428437,4.2686926316512706 4.111249578194185,7.554830146394357 8.605234999144496,7.554830146394357 h57.421869982270465 c4.493985420950312,0 8.237440795895367,-3.2850421355715067 8.605234999144496,-7.554830146394357 l2.6170856274945944,-30.30037864427443 c0.19768938424640786,-2.291533226947513 -0.6195033610977544,-4.557872732948662 -2.2538888517860767,-6.250233553041353 s-3.9376966885360014,-2.6541037327408343 -6.350196790473266,-2.6541037327408343 zm-10.57178462964219,30.29928326510285 h-41.514770691745575 l-1.1953311605596735,-13.841211212097884 h43.90658236975008 z" data-original="#000000" class="" style="fill:#000000" id="svg_36"/><path d="m357.1980235488909,395.6675949899327 h43.5721195161704 c4.069872730328657,0 7.586904798898465,-2.7088726913198853 8.443175678337848,-6.501075383333409 l6.8317773253525935,-30.29928326510285 c0.547093877333082,-2.4306463817383035 -0.0862017663865152,-4.966449163948386 -1.7263340415006057,-6.900888780960484 c-1.6389829182289368,-1.933344237840517 -4.107801507538723,-3.0572032678826524 -6.716841636837242,-3.0572032678826524 h-47.78566185714325 c-4.493985420950312,0 -8.237440795895367,3.2850421355715067 -8.605234999144496,7.554830146394357 l-2.6170856274945944,30.29928326510285 c-0.19768938424640786,2.291533226947513 0.6195033610977544,4.557872732948662 2.2538888517860767,6.250233553041353 s3.9376966885360014,2.6541037327408343 6.350196790473266,2.6541037327408343 zm10.57178462964219,-30.298187885931267 h29.144242536838114 l-3.1205039431918395,13.840115832926303 h-27.2202191110911 z" data-original="#000000" class="" style="fill:#000000" id="svg_37"/><path d="m218.90970184098816,446.3650291882175 c-8.185719736063456,0 -14.820957034054796,6.3247193367088625 -14.820957034054796,14.124914417537372 c0,7.801290460000089 6.635237297991341,14.126009796708953 14.820957034054796,14.126009796708953 s14.820957034054796,-6.3247193367088625 14.820957034054796,-14.126009796708953 c0,-7.800195080828509 -6.635237297991341,-14.124914417537372 -14.820957034054796,-14.124914417537372 z" data-original="#000000" class="" style="fill:#000000" id="svg_38"/><path d="m369.06973081564166,446.3650291882175 c-8.185719736063456,0 -14.820957034054796,6.3247193367088625 -14.820957034054796,14.124914417537372 c0,7.801290460000089 6.635237297991341,14.126009796708953 14.820957034054796,14.126009796708953 s14.820957034054796,-6.3247193367088625 14.820957034054796,-14.126009796708953 c0,-7.800195080828509 -6.635237297991341,-14.124914417537372 -14.820957034054796,-14.124914417537372 z" data-original="#000000" class="" style="fill:#000000" id="svg_39"/></g></g></g></g></svg>