<?xml version="1.0"?>
<svg xmlns="http://www.w3.org/2000/svg" xmlns:xlink="http://www.w3.org/1999/xlink" version="1.1" id="Capa_1" x="0px" y="0px" viewBox="0 0 512 512" style="enable-background:new 0 0 512 512;" xml:space="preserve" width="512px" height="512px" class=""><g><rect x="140.95" y="462" style="fill:#95D6A4" width="178.05" height="40" data-original="#7D9BFF" class="" data-old_color="#7D9BFF"/><rect x="189.97" y="408" style="fill:#E1E4E6" width="80" height="53.996" data-original="#EDF2FA" class="active-path" data-old_color="#EDF2FA"/><rect x="9.07" y="350.01" style="fill:#95D6A4" width="439.87" height="57.99" data-original="#7D9BFF" class="" data-old_color="#7D9BFF"/><rect x="9.07" y="95" style="fill:#F9B644" width="439.87" height="255.01" data-original="#C9F3FF" class="" data-old_color="#C9F3FF"/><rect x="129" y="10" style="fill:#E1E4E6" width="373" height="299" data-original="#EDF2FA" class="active-path" data-old_color="#EDF2FA"/><path style="fill:#FBEA72" d="M433.058,195.037c0,1.385-52.64,74.037-117.558,74.037s-117.558-73.115-117.558-74.037  c0-1.384,52.64-74.037,117.558-74.037S433.058,194.115,433.058,195.037z" data-original="#72D8FF" class="" data-old_color="#72D8FF"/><circle style="fill:#FFFFFF" cx="315.52" cy="195.02" r="40.16" data-original="#FFFFFF" class=""/><rect x="129" y="10" style="fill:#FAA515" width="373" height="72" data-original="#FFB954" class="" data-old_color="#FFB954"/><path style="fill:#231F20;" d="M134,82h357.891" data-original="#231F20"/><path d="M405.164,150.108C375.572,124.523,344.567,111,315.5,111c-36.771,0-69.049,21.167-89.652,38.925  c-11.704,10.087-20.756,19.971-26.29,26.486c-11.617,13.68-11.617,15.862-11.617,18.625c0,2.886,0,4.793,11.627,18.441  c5.569,6.538,14.646,16.44,26.267,26.487c29.592,25.585,60.597,39.108,89.664,39.108c36.771,0,69.049-21.167,89.652-38.924  c11.704-10.088,20.756-19.972,26.29-26.487c11.617-13.681,11.617-15.862,11.617-18.626c0-2.886,0-4.792-11.627-18.441  C425.862,170.058,416.785,160.155,405.164,150.108z M315.5,259.073c-50.13,0-92.87-48.615-105.273-64.232  C223.344,177.906,267.086,131,315.5,131c50.126,0,92.87,48.614,105.273,64.232C407.662,212.164,363.922,259.073,315.5,259.073z" data-original="#000000" class="" style="fill:#000000"/><path d="M315.517,144.862c-27.657,0-50.158,22.5-50.158,50.157s22.5,50.157,50.158,50.157c27.657,0,50.157-22.5,50.157-50.157  S343.174,144.862,315.517,144.862z M315.517,225.177c-16.629,0-30.158-13.528-30.158-30.157s13.529-30.157,30.158-30.157  s30.157,13.528,30.157,30.157S332.146,225.177,315.517,225.177z" data-original="#000000" class="" style="fill:#000000"/><path d="M315.5,185.04c-2.63,0-5.21,1.06-7.07,2.93c-1.86,1.86-2.93,4.43-2.93,7.07c0,2.63,1.07,5.21,2.93,7.069  c1.86,1.86,4.44,2.921,7.07,2.921s5.21-1.061,7.07-2.921c1.86-1.859,2.93-4.439,2.93-7.069c0-2.641-1.07-5.21-2.93-7.07  C320.71,186.1,318.13,185.04,315.5,185.04z" data-original="#000000" class="" style="fill:#000000"/><path d="M299.985,56H452.39c5.523,0,10-4.478,10-10s-4.477-10-10-10H299.985c-5.523,0-10,4.478-10,10S294.462,56,299.985,56z" data-original="#000000" class="" style="fill:#000000"/><path d="M222.75,56c2.63,0,5.21-1.07,7.07-2.931c1.86-1.859,2.93-4.439,2.93-7.069s-1.07-5.21-2.93-7.07S225.38,36,222.75,36  c-2.64,0-5.21,1.069-7.07,2.93c-1.86,1.86-2.93,4.44-2.93,7.07s1.07,5.21,2.93,7.069C217.54,54.93,220.11,56,222.75,56z" data-original="#000000" class="" style="fill:#000000"/><path d="M186,56c2.63,0,5.21-1.07,7.07-2.931C194.93,51.21,196,48.63,196,46s-1.07-5.21-2.93-7.07S188.63,36,186,36  s-5.21,1.069-7.07,2.93C177.07,40.79,176,43.37,176,46s1.07,5.21,2.93,7.069C180.79,54.93,183.37,56,186,56z" data-original="#000000" class="" style="fill:#000000"/><path d="M259.5,56c2.63,0,5.21-1.07,7.07-2.931c1.86-1.859,2.93-4.439,2.93-7.069s-1.07-5.21-2.93-7.07S262.13,36,259.5,36  c-2.64,0-5.22,1.069-7.08,2.93s-2.92,4.44-2.92,7.07s1.06,5.21,2.92,7.069C254.29,54.93,256.86,56,259.5,56z" data-original="#000000" class="" style="fill:#000000"/><path d="M502,0H129c-5.523,0-10,4.478-10,10v299c0,5.522,4.477,10,10,10h309v21.044c-0.302-0.027-0.606-0.046-0.915-0.046H20v-235  h44c5.523,0,10-4.478,10-10s-4.477-10-10-10H10c-5.523,0-10,4.478-10,10V408c0,5.522,4.477,10,10,10h169.037v33.996h-39.024  c-5.523,0-10,4.478-10,10V502c0,5.522,4.477,10,10,10h178.049c5.523,0,10-4.478,10-10v-40.004c0-5.522-4.477-10-10-10h-39.024V418  H448c5.523,0,10-4.478,10-10v-89h44c5.523,0,10-4.478,10-10V10C512,4.478,507.523,0,502,0z M308.061,492H150.012v-20.004h39.024h80  h39.024V492H308.061z M259.037,451.996h-60V418h60V451.996z M269.037,398h-80H20v-38.002h417.086c0.309,0,0.613-0.019,0.915-0.046  V398H269.037z M492,20v52.005c-0.037,0-0.072-0.005-0.109-0.005H139V20H492z M139,299V92h352.891c0.037,0,0.073-0.005,0.109-0.005  V299H139z" data-original="#000000" class="" style="fill:#000000"/><path d="M71.07,235.21c-1.86-1.86-4.44-2.93-7.07-2.93c-2.64,0-5.21,1.069-7.07,2.93c-1.86,1.859-2.93,4.439-2.93,7.07  c0,2.63,1.07,5.21,2.93,7.069c1.86,1.86,4.44,2.931,7.07,2.931c2.63,0,5.21-1.07,7.07-2.931c1.86-1.859,2.93-4.439,2.93-7.069  C74,239.649,72.93,237.069,71.07,235.21z" data-original="#000000" class="" style="fill:#000000"/><path d="M74,154.862c0-5.522-4.477-10-10-10s-10,4.478-10,10v50.669c0,5.522,4.477,10,10,10s10-4.478,10-10V154.862z" data-original="#000000" class="" style="fill:#000000"/><path d="M64,269.03c-2.63,0-5.21,1.069-7.07,2.93c-1.86,1.859-2.93,4.439-2.93,7.07c0,2.63,1.07,5.21,2.93,7.069  c1.86,1.86,4.44,2.931,7.07,2.931c2.63,0,5.21-1.07,7.07-2.931c1.86-1.859,2.93-4.439,2.93-7.069c0-2.631-1.07-5.211-2.93-7.07  C69.21,270.1,66.63,269.03,64,269.03z" data-original="#000000" class="" style="fill:#000000"/></g> </svg>
